<svg id="Layer_1" data-name="Layer 1" xmlns="http://www.w3.org/2000/svg" viewBox="0 0 581.3086 818.52"><defs><style>.cls-1{fill:#fdfdfd;}.cls-2{fill:#5a5a5c;}.cls-3{fill:#5b5b5d;}.cls-4{fill:#444244;}.cls-5{fill:#424244;}.cls-6{fill:#191919;}.cls-7{fill:#090909;}.cls-8{fill:#fb5244;}.cls-9{fill:#2f2f2f;}.cls-10{fill:#75dffa;}.cls-11{fill:#fa5346;}.cls-12{fill:#77e0fa;}.cls-13{fill:#101010;}.cls-14{fill:#0e0e0e;}.cls-15{fill:#282828;}.cls-16{fill:#f65346;}.cls-17{fill:#242424;}.cls-18{fill:#fcf9f9;}.cls-19{fill:#fc5244;}.cls-20{fill:#f3f3f3;}.cls-21{fill:#f5f5f5;}.cls-22{fill:#ececec;}.cls-23{fill:#f6f6f6;}.cls-24{fill:#070707;}.cls-25{fill:#dfdfdf;}</style></defs><path class="cls-1" d="M830.6543,949.26H249.3457V130.74H830.6543ZM575.0151,273.97l.03-.03-.0572,4.1395c2.4032,2.4244,3.9084,1.2382,5.1117-1.2575.89-1.8461,1.8107-3.6775,2.7177-5.5154l1.5885-1.9625a7.712,7.712,0,0,0,1.9517-1.192c1.0137-1.1462,1.8566-2.4438,2.77-3.6792-1.4265-.8286-2.8137-1.74-4.2979-2.4471a6.8586,6.8586,0,0,0-2.2137-.25l-4.5524-4.9218a54.2955,54.2955,0,0,0-6.2589,1.3885c-2.2992.7853-4.4691,1.95-6.6925,2.9567-1.41.6382-3.6376.9943-4,2.0116-.3878,1.0879.9843,2.8038,1.5882,4.2456l.5574,2.708q.3189,2.4042.6376,4.8084l.4463,2.66.4356,3.877q.1764,1.3512.3527,2.7025.3188,2.404.6376,4.8081.2225,1.33.4448,2.66l.437,3.8772q.1764,1.3512.3527,2.7025.3189,2.404.6377,4.8082.223,1.33.4462,2.66c-.4752,3.5667,1.0463,4.4381,4.1961,3.1112l3.6446-.4744a42.5732,42.5732,0,0,0,6.2015,1.03,5.0323,5.0323,0,0,0,3.5388-1.3377,3.2975,3.2975,0,0,0,.08-3.2572,4.4653,4.4653,0,0,0-3.5845-1.2253c-3.5386.8-6.9773,2.042-10.4545,3.1137l-1.6551-2.5573-.5019-3.8592-.5948-3.6015v-5.207l9.8152.578,1.9372-1.1613-.5948-4.392a28.421,28.421,0,0,0-4.1625.7724,13.02,13.02,0,0,0-2.7,1.6963l-1.8262.2353q-1.8731-1.484-3.7459-2.9681l-.5949-3.6014q-.2-1.9557-.4-3.9113-.2992-1.7761-.5986-3.5524l-.279-2.983-.3636-2.7225q.2475-1.6428.4951-3.2858l1.1161-2.4557,7.1235-3.83c1.3344.2512,2.8843.1609,3.9519.835a27.8988,27.8988,0,0,1,4.0649,3.7888q-.4335,2.34-.8663,4.68l.017-.0017q-1.2749,1.6212-2.55,3.2422Zm-1.7188,52.5244q-.1047-.9227-.2095-1.8452a45.9583,45.9583,0,0,0,.6783-6.8466,5.2063,5.2063,0,0,0-1.8437-3.3693,2.9327,2.9327,0,0,0-2.904.3235,5.1034,5.1034,0,0,0-1.0238,3.72c.9422,3.962,2.2691,7.8323,3.45,11.7374.8854,7.8866,1.7305,15.7782,2.7072,23.6534a4.8425,4.8425,0,0,0,1.4687,2.7721c5.9056,5.2724,11.6716,11.0827,20.7807,7.2234.5424-.23,1.3609.1,1.8327-.188,1.9663-1.2014,4.1731-2.2446,5.6811-3.9019a42.8151,42.8151,0,0,0,4.8319-7.2219,12.7932,12.7932,0,0,0,1.7834-4.58c.051-.37-2.7085-1.8113-3.2324-1.4375a5.9884,5.9884,0,0,0-2.3766,3.81c-.6712,7.5882-4.3566,10.8221-12.8176,10.2032,0-3.7971.1108-7.68-.06-11.5511-.0595-1.3467-.45-3.1512-1.3685-3.8405a3.71,3.71,0,0,0-3.68.4919c-.7.93-.6105,2.7834-.2858,4.0953.9552,3.8583,2.1952,7.646,3.4207,11.79-9.88-.2458-15.3768-10.0707-14.49-24.6061a47.49,47.49,0,0,0,6.4413.9087c1.3648.0177,3.1615-.3538,3.9715-1.26.6095-.682.3819-3.3192-.2185-3.626a6.9822,6.9822,0,0,0-4.5162-.2975,44.99,44.99,0,0,0-6.1953,2.5142l-1.2941-4.958Q573.5617,328.35,573.2963,326.494ZM493.35,719.2414l.2881-.1688-.3067.1321c8.2381,6.305,17.3253,5.6039,26.58,3.1428,6.7912-1.8059,13.5649-3.4142,20.5748-1.1815l.9166.5193q2.7618,3.8824,5.5238,7.7648-.0126,2.4723-.0253,4.9448c-3.21,7.2068-1.2408,13.3735,5.5621,16.7464a27.218,27.218,0,0,0,7.4087,2.6218c8.8563,1.4841,17.8322,2.3237,26.6252,4.0922,6.9257,1.3928,13.649,3.7936,20.4622,5.7468l.3846.1675c6.3963,2.2259,12.9714,3.3115,18.6255-1.2554,5.2567-4.246,3.8291-10.3711,2.922-16.0923a15.1582,15.1582,0,0,0-.46-2.2859c-2.491-7.7163-2.6825-15.2522,1.6717-22.4544a.6582.6582,0,0,0,.2763-.8c1.8557-3.3353,4.306-6.4868,5.4079-10.0551,1.224-3.9636,1.1969-8.3019-2.7509-11.3346l-.1468-.19c-1.3-1.0162-2.4937-2.7061-3.9174-2.9292a100.8477,100.8477,0,0,0-16.5193-1.693c-9.7751.1013-19.47,1.737-29.2806-.8583-6.3846-1.689-13.1777-1.7765-19.7434-2.8529-5.4667-.8963-10.8687-2.1878-16.2994-3.3042l-.8274-.73c-1.7481-2.703-3.1734-5.7109-5.3461-8.0125-1.7412-1.8443-4.42-3.9134-6.6258-3.8507-1.7179.0488-3.6834,3.02-4.9213,5.0672-1.2477,2.0627-1.7337,4.5865-2.5534,6.9084l-.4806.7816-2.9013,2.8985a.7.7,0,0,0-.7826.4015c-4.2436,1.61-8.1465.7109-12-1.4014a105.4671,105.4671,0,0,0-11.18-5.5642c-3.302-1.3287-6.7664-1.17-9.4705,1.6481-4.2529,4.4322-6.0449,19.9128-3.0552,25.616l.7481,1.8353,2.151,2.9012.7979.9015Q492.0162,718.1536,493.35,719.2414ZM615.3934,303.8359c-.3272,4.6344.6224,9.8458-5.7711,11.58-.6621.18-1.3335,2.1447-1.1476,3.1183a3.6589,3.6589,0,0,0,2.2707,2.4249c.9743.215,2.8347-.36,3.2-1.1212,3.026-6.3089,5.4616-12.7634,1.4228-19.6212l-.7359-4.1682-.2364-1.9207-1.3216-.4654-1.4937-.5622c-4.5211-2.3537-8.9868-4.8288-13.616-6.9462-.8074-.3693-2.3035.7684-3.4814,1.21l.0412,3.2588a17.4372,17.4372,0,0,0,3.0274,1.4745c4.6914,1.272,9.4593,2.2862,14.0859,3.7524.912.289,1.3227,2.1614,2.5578,4.3593-7.15-.5737-12.147,1.1187-15.0019,6.8228-.2086.4166-1.3409.3459-1.5931.77-.7723,1.2984-1.7643,2.7257-1.7705,4.1069-.0029.6544,2.29,2.0659,3.0986,1.797,1.1287-.3756,1.8964-1.963,2.7205-3.1028,1.7874-2.4721,3.5127-4.9892,5.2633-7.4879l2.7273-.3437ZM598.25,275.0081c2.1894,2.7783,4.2787,5.6461,6.6314,8.2783a3.6487,3.6487,0,0,0,3.14,1.0752,4.1377,4.1377,0,0,0,2.3488-2.8777c.0256-1.0307-1.15-2.4434-2.1763-3.0648a26.4454,26.4454,0,0,0-5.0463-1.8615c-1.559-2.4646-3.0055-5.0125-4.7355-7.35-.64-.8655-2.0842-1.8627-2.9156-1.68-1.0857.2388-1.9974,1.5257-2.86,2.4744-2.3592,2.5942-4.7715,5.1556-6.9206,7.9186-.983,1.2638-2.388,3.5428-1.9043,4.3812,2.6593,4.6091,2.9139,9.2147,1.64,14.2311-.2307.9083.8925,2.7507,1.8411,3.1912.83.3856,2.6228-.2848,3.3639-1.0759.51-.5446.3545-2.3853-.1955-3.1456-4.6772-6.4663-1.5651-17.1846,2.9724-20.3083C594.552,274.4239,596.6191,275.033,598.25,275.0081Zm-174.996,333.24c1.3026,2.7508,3.0629,5.38,3.8315,8.2727a93.7635,93.7635,0,0,1,.201,47.6111c-.3691,1.4726.7766,3.3253,1.2189,5.0015,1.2594-1.2646,3.2409-2.3255,3.6634-3.8259a84.1184,84.1184,0,0,0,2.7008-35.1258c-.95-6.5616-2.2849-13.0673-3.5466-20.1623a67,67,0,0,1,7.872.88c9.3674,2.1573,12.9667,7.8383,9.93,16.9561-1.5385,4.6194-4.8211,8.6376-7.0681,13.0535-.6319,1.2418-.3886,2.9294-.5467,4.4126,1.4938-.3843,3.7531-.2849,4.3527-1.2344,3.0528-4.8347,6.22-9.7248,8.3133-15.0059,2.6683-6.7325,1.6079-13.5751-4.0252-18.4315-5.8517-5.0449-12.9313-6.834-19.9221-4.81-4.5516-5.1859-9.0365-10.2541-13.4545-15.38a10.5675,10.5675,0,0,1-1.2067-2.4668c-2.3438-4.9843-6.4735-6.6037-11.0682-4.3387a7.6841,7.6841,0,0,0-3.6055,10.3166c2.0555,4.4052,6.6634,5.734,11.4563,3.4635,1.1075-.5247,3.2614-1.0933,3.59-.6483,2.4122,3.2661,4.4827,6.7848,6.6609,10.2239-1.3623-.0811-2.824-.5279-4.0719-.1884-18.7759,5.1086-34.9615,14.43-47.5018,29.5832a75.2733,75.2733,0,0,1-3.768-7.8868c-3.439-9.896,1.6449-17.5825,12.149-18.2053,4.1562-.2465,8.36.413,12.536.3344,1.2742-.0239,2.528-1.1334,3.7911-1.7457-.8933-1.0564-1.6434-2.8438-2.703-3.0517-7.4-1.4513-14.754-1.5765-21.9245,1.4824-6.2051,2.6471-9.9753,7.3618-10.1016,13.8734-.1325,6.828,1.0343,13.6873,7.5852,17.9629-2.0483,3.83-4.3267,7.5588-6.08,11.52-1.7259,3.9-2.9136,8.0381-4.3477,12.0681-1.7058,4.7931,1.0609,10.0728,5.7759,11.0049a7.9723,7.9723,0,0,0,8.9609-5.0943c1.5339-4.172-.1383-7.14-3.4414-9.6958-1.24-.9595-3.0476-2.82-2.7905-3.7916.9831-3.7138,2.7011-7.2329,4.2254-11.0256,5.514,7.5691,11.92,12.6847,18.8887,17.126,13.589,8.6606,27.9821,15.12,44.5434,14.4645a154.3136,154.3136,0,0,0,18.1744-2.1277c3.9141-.6258,6.7566-5.071,6.1146-8.7325a8.1811,8.1811,0,0,0-8.2212-6.8848c-4.1715.1175-7.3986,3.0369-7.2988,7.4192.07,3.07-1.2115,4.3437-3.8384,4.6726-3.2289.4041-6.5414,1.0934-9.723.7583-14.2539-1.5011-27.1513-6.8487-38.7526-15.1148-6.0734-4.3273-11.66-9.3388-17.6727-14.2087,11.8054-14.6261,27.1638-24.08,45.25-29.5091C420.2018,611.4637,421.6324,609.5373,423.2541,608.2481Zm79.83-139.7227c-9.1623.8167-18.0309,2.434-26.3568,6.8388-6.5053,3.4416-12.6771,1.7606-17.94-3.3073-.8907-.8577-1.7813-1.9822-2.8724-2.3045-1.7821-.5265-4.0817-1.1916-5.4942-.4763-1.1164.5653-1.6862,3.12-1.6747,4.7848.0157,2.2831.7859,4.5662,1.2766,6.84,1.7243,7.9889-2.2841,12.4779-10.3414,11.5732-3.7027-.4158-7.4028-1.0765-11.1132-1.1472-4.9434-.0942-7.4233,2.49-6.4206,7.3533a68.1074,68.1074,0,0,0,4.7654,14.5067c7.5657,16.5037,26.17,19.3569,38.5739,6.2473,2.1772-2.3009,5.0305-3.9617,7.5716-5.9181q-.2072,2.962-.4142,5.9239l-.3667,4.6964.0325,15.8007q.1172,1.8841.2345,3.7683a20.1464,20.1464,0,0,0,.5057,4.0563c2.4223,7.2347,4.9631,14.43,7.4636,21.6382-3.8575-.389-7.7218-.7219-11.5713-1.1789-7.4264-.8817-11.49,3.1165-9.3,10.1122a66.9019,66.9019,0,0,0,7.5412,16.92c8.3518,12.6123,27.6511,12.6088,36.7447.4581,2.8657,1.5019,5.6,3.3837,8.6226,4.4329,8.3247,2.8894,16.9547,4.9688,25.1185,8.2332,8.87,3.5467,17.3509,2.4793,26.008-.1093,4.6132-1.38,9.2366-2.7246,13.8555-4.0852,7.7032-.7155,15.5391-.7756,23.0783-2.3019,11.0067-2.2284,12.9521-9.8062,5.24-18.0814.6823-1.0324,1.3033-2.1119,2.0561-3.09,11.4943-14.9356,17.2876-31.6528,16.992-50.6692-.639-41.0919-34.5406-74.927-75.7084-75.0214-4.4954-.01-9.1423,1.4791-13.4544.736-6.9311-1.1944-12.5,1.214-18.1,4.4252Q510.36,464.3518,503.0842,468.5254ZM427.9968,317.5477a17.3576,17.3576,0,0,1-8.7932-9.7575c-.663-1.6836-3.1192-3.8974-4.5247-3.743-1.82.2-3.8152,2.2559-4.9791,4.0137-1.1517,1.74-1.2861,4.1289-2.0009,6.1866-2.82,8.1177-8.0163,10.1638-15.6015,6.2314a79.0434,79.0434,0,0,0-7.1187-3.4829c-5.1182-2.0307-9.09-.468-10.6917,4.8169a55.3079,55.3079,0,0,0-2.4055,13.7377c-.5827,15.0218,11.6665,23.9039,26.0063,19.0609,3.5308-1.1924,6.9109-2.8262,10.3826-4.2008,9.3111-3.6865,16.5.3431,18.2241,10.2365.2937,1.685.3018,3.4177.5109,5.12A16.8868,16.8868,0,0,0,437.6867,380.04c9.2694,3.8906,18.9774,3.6688,28.3982.8474,7.7464-2.32,17.1975-4.1259,25.8019-3.4907,5.39.3979,7.6512-1.9157,6.6074-7.2683a60.0327,60.0327,0,0,0-3.1556-11.2387c-2.5216-6.1582-2.1567-11.8985.1659-18.1068A51.1409,51.1409,0,0,0,498.7678,325c.1961-5.3751-2.7821-8.5622-8.1439-9.15a46.1117,46.1117,0,0,0-13.7953.8842c-8.7779,1.7461-17.3461,3.2467-26.318.615-3.3361-.9785-7.2768.1065-10.9418.2506l-5.0332.1914-3.4522-.0081Zm160.3906,523.67c12.7636.1472,19.0019-5.3309,20.0445-15.0042.3-2.7832.2482-5.6082.287-8.415.0959-6.94,1.9965-13.0648,6.8376-18.3622a66.4811,66.4811,0,0,0,9.4527-12.6663c3.9466-7.2288.9071-13.4941-7.0737-15.2518a69.5364,69.5364,0,0,0-11.5932-1.0319c-9.9126-.4741-19.8706-.422-29.7338-1.3746-7.82-.7551-15.4777-3.1223-23.2946-3.9789-8.6383-.9467-16.2265-2.1981-18.8334-12.5115-1.3786-5.4541-7.3588-6.06-10.9173-1.6043a44.7116,44.7116,0,0,0-3.5743,5.9994c-4.2847,7.5553-11.0131,9.5025-18.4794,5.238-2.7031-1.5439-5.24-3.38-7.9434-4.9222-6.704-3.8243-12.632-2.4273-16.1536,4.3834a73.0121,73.0121,0,0,0-5.2143,13.94c-2.3872,8.5743,1.7239,15.8912,10.11,18.7693A32.5514,32.5514,0,0,0,500.25,795.43a143.1131,143.1131,0,0,1,16.6167-2.5146c7.6732-.7494,14.71,5.8779,10.6512,14.7006-.7148,1.5536-1.3057,3.1672-1.9,4.7731-2.2311,6.0325-.7937,10.634,5.2173,13.0342,5.4257,2.1666,11.3217,3.1594,17.0171,4.6436,8.5376,2.225,17.1055,4.3381,25.6138,6.6693C579.4351,838.3716,585.3258,840.2912,588.3874,841.2174Zm26.8987-158.0151c1.7693-.1639,3.9531-.2617,6.1034-.5834,9.6314-1.4408,12.6453-7.0537,8.2482-15.916a85.14,85.14,0,0,0-6.9312-11.0448c-3.815-5.4052-6.0727-11.15-5.294-17.9041a79.0668,79.0668,0,0,0,.7907-11.1695c-.2017-7.3019-4.2632-13.5176-10.2939-14.5107a35.8309,35.8309,0,0,0-13.2634.6664c-8.6193,1.9147-17.0337,6.152-25.623,6.4093-8.5965.2575-16.9984.4806-25.343,2.5389-8.15,2.01-15.0294.3111-20.3873-6.6284-2.035-2.6358-5.2784-5.1785-8.3885-3.096-1.7767,1.19-2.52,5.0182-2.4806,7.64.1713,11.4556-4.352,15.0948-15.3232,11.955a64.1725,64.1725,0,0,0-11.3249-2.5837c-4.795-.4615-7.9795,2.0626-7.5375,6.6828.6287,6.5709,1.3747,13.5246,4.0416,19.4228,5.2881,11.6949,21.444,15.0963,34.1253,8.1406,3.1376-1.7209,6.2117-3.5611,9.3833-5.2156,9.4582-4.9339,18.765-.7344,21.3859,9.5931.3066,1.2084.6653,2.4052.9258,3.6233,1.302,6.0882,4.7946,10.3267,11.04,11.1551,5.6561.75,11.5634,1.4809,17.1267.6523a115.31,115.31,0,0,1,32.08-.4024C610.5068,682.9076,612.6927,682.9931,615.2861,683.2023ZM509.2417,402.5213c.2348-15.898-7.4324-21.7079-20.7463-17.5459-3.1153.9738-6.036,2.6141-9.1788,3.4474a162.3374,162.3374,0,0,1-16.2572,3.5719c-6.87,1.0838-13.8341,1.56-20.7252,2.5288-6.3738.8963-12.4616,1.3935-16.9379-4.6485-2.1828-2.9463-4.322-6.9654-8.8595-5.07-4.0124,1.6762-2.6509,5.9019-2.705,9.1752-.1672,10.1187-4.84,13.5282-14.476,10.5714a63.1287,63.1287,0,0,0-10.4144-2.3606c-3.4092-.4372-6.1289,1.362-6.1073,4.8805a72.4494,72.4494,0,0,0,1.4269,16.1156c3.5368,14.9609,19.5332,21.2333,32.7647,13.1994,2.6624-1.6166,5.2445-3.3682,7.9345-4.936,8.5694-4.9944,16.2634-2.3575,19.9887,6.9013.984,2.4455,1.6025,5.0378,2.3958,7.5605a12.897,12.897,0,0,0,10.2025,9.2531c4.0763.8226,8.5927,1.8521,12.4562.91,13.9266-3.3946,27.8345-1.2272,41.7383-.8214,8.62.2516,12.8476-5.17,9.7133-13.2337a25.8529,25.8529,0,0,0-2.5651-5.4826C511.3348,425.7053,504.28,414.7873,509.2417,402.5213Zm-22.4172-92.2905c8.8707-.421,12.4724-3.87,12.32-12.57a35.3558,35.3558,0,0,0-1.172-8.7588c-2.6446-9.5259-1.7463-18.289,3.7885-26.77a40.8641,40.8641,0,0,0,5.2289-12.853c1.61-6.87-1.9927-11.0664-8.994-10.7378-4.6284.2173-9.1985,1.4832-13.8213,2.07-5.067.643-10.4092,2.2482-15.1923,1.2744a66.8453,66.8453,0,0,0-22.1736-.9214c-7.832.99-10.87-1.7578-12.739-9.44-.3642-1.4966-1.5518-3.6365-2.7035-3.8852a6.2257,6.2257,0,0,0-4.8251,1.7162c-1.6008,1.5833-2.4328,3.9187-3.7346,5.8365a69.3446,69.3446,0,0,1-6.2414,8.6193c-2.8788,3.0825-6.5723,3.2644-10.2624,1.2181-1.3564-.7521-2.6076-1.6941-3.9071-2.549-6.5422-4.3041-11.5277-3.3877-14.981,3.5974a70.4393,70.4393,0,0,0-5.0747,14.945c-2.5081,10.5867,3.6693,18.2765,14.5742,18.253a31.4549,31.4549,0,0,0,9.0783-1.7714c4.151-1.2959,8.099-3.2533,12.2626-4.4959,7.1312-2.1281,13.2085,3.0942,12.5078,10.5411-.1748,1.8577-.6387,3.6874-.83,5.5444-.8379,8.1212,2.0769,12.5945,10.0528,14.127,5.1513.99,10.5111.84,15.748,1.4521q8.5271.9975,16.9935,2.4919C477.4587,308.0038,482.1278,309.1951,486.8245,310.2308Zm5.9452-74.7334c11.9595.06,16.7-3.9164,18.033-13.2531a38.6459,38.6459,0,0,0,.3713-8.8568c-.852-9.4171,2.2329-17.4211,7.9689-24.6969a74.4363,74.4363,0,0,0,7.1476-10.3594c2.027-3.7336,5.047-8.0647,1.9926-12.1683-3.1192-4.1906-7.9567-2.1545-12.1955-1.3051-7.6148,1.5259-15.3077,4.53-22.8279,4.1492a152.5283,152.5283,0,0,0-23.6482.3927c-8.0455.8336-9.4979-.7139-9.8416-8.831-.1591-3.7594-2.0925-4.49-4.8239-2.6451a33.9115,33.9115,0,0,0-5.978,5.7379c-2.8883,3.2386-5.2821,6.9833-8.4594,9.8842-5.04,4.6019-8.03,4.4965-13.7852.6479-5.8965-3.9434-9.5424-3.6288-14.3254,1.539-5.86,6.3309-9.3171,13.9961-11.2075,22.2829-1.4566,6.3845,1.97,11.5167,8.5,11.9388,4.487.29,9.2065-.8745,13.6161-2.1192,4.6177-1.3035,8.8971-3.7771,13.4908-5.2023,6.2968-1.9537,10.2318,1.3328,9.53,7.9326-.3748,3.5268-1.6709,6.9472-2.4111,10.4453-1.1354,5.3653.8035,9.1449,6.1694,10.1584,4.9772.94,10.1678.7865,15.2686,1.0235,4.48.2081,9.0148-.0747,13.4365.52C484.3186,233.4566,489.7551,234.8764,492.77,235.4974Zm-21.007,617.852c5.2023.1529,9.7946-.701,12.2961,3.867,2.6947,4.921-1.1334,8.1161-3.523,11.6329-.0873.1284-.2046.2359-.2982.3606-6.0738,8.0907-5.0538,13.1091,4.6505,16.1379,11.7333,3.6621,23.1867,7.5256,34.2612,13.1166,11.6869,5.9,22.336,1.26,26.6353-11.1788a52.5278,52.5278,0,0,1,20.484-26.9217c3.1744-2.2128,5.6958-5.7343,7.7167-9.1329,2.2342-3.7573.9478-7.17-3.19-8.6829a39.8365,39.8365,0,0,0-11.3469-2.29c-10.3984-.5717-20.8528-.0338-30.4033-5.7137-2.7736-1.65-6.6229-1.515-9.992-2.1277-2.758-.5017-5.5789-.7181-8.2942-1.38-5.3064-1.2935-7.5747-4.3422-8.14-9.4623-.2118-1.9179-1.259-5.044-2.3992-5.2746a9.7212,9.7212,0,0,0-6.6441,1.6742c-2.3966,1.6235-4.0812,4.2588-6.2547,6.26-6.0687,5.5888-10.56,5.7195-16.9.6289-1.3359-1.0726-2.5531-2.2938-3.896-3.3566-4.0681-3.22-9.52-3.8305-12.7661-.0656a92.9508,92.9508,0,0,0-12.2739,17.891c-2.6426,5.13-.2286,10.5432,5.2351,12.717a42.1378,42.1378,0,0,0,13.5444,2.4723C464.4128,854.7046,468.6126,853.7085,471.7627,853.3494ZM620.5335,585.0386a9.1087,9.1087,0,0,0,1.0288.6187q23.9892,11.9853,47.986,23.9552,39.4527,19.6854,78.9095,39.3622a7.2687,7.2687,0,0,0,9.7518-3.2541c2.3655-4.7221,4.6785-9.47,7.0478-14.1906,2.6-5.1789,2.0417-7.0849-3.0376-9.649-6.52-3.2915-13.0715-6.5211-19.6056-9.785-36.278-18.1212-72.5548-36.2446-108.3367-54.12C629.7107,566.9684,625.18,575.89,620.5335,585.0386Zm7.3051,288.5076c-2.241-.1865-4.0645-.2947-5.8768-.5012-1.8383-.2095-3.6655-.516-5.3964-.7654-3.0313-7.3323-6.9956-10.2293-12.4844-8.7443-1.4481.3918-2.53,2.1371-3.78,3.2609,1.4454.3016,2.9548,1.0269,4.3235.82,3.2262-.4873,6.0067.3433,6.755,3.4207a8.7329,8.7329,0,0,1-1.3526,6.6875c-2.2111,2.7359-5.2053,1.73-7.9768-.0488-.9166-.5884-2.4121-.2742-3.6429-.3727.3812,1.2167.456,3.2226,1.1977,3.5108,2.9094,1.1309,6.12,2.57,9.0434,2.2562,2.5884-.2774,3.9858.1792,5.5556,1.91,4.7073,5.1918,9.4311,10.3731,14.3023,15.4095,1.8777,1.9414,2.7708,3.5445,1.7806,6.4713a9.9628,9.9628,0,0,0,17.633,8.639c1.4691-2.2883,3.0125-2.7425,5.37-2.4546,7.4211.9065,14.8717,1.6013,22.2626,2.7024a6.2525,6.2525,0,0,1,3.8857,2.938c2.9218,5.3547,8.0575,7.745,13.1814,5.7294a10.1874,10.1874,0,0,0,5.84-12.3219c-1.6213-5.2557-6.3556-7.8055-12.2449-6.764-1.2206.2159-2.9588.3414-3.74-.3293a93.6665,93.6665,0,0,1-6.7893-7.0886c6.1216-2.4544,11.536-4.7986,17.094-6.7284a6.1173,6.1173,0,0,1,4.702.798c3.8631,2.5826,7.7634,3.3493,11.8289.9542a9.3683,9.3683,0,0,0,4.8711-9.4238c-.4919-4.87-3.3964-7.8135-8.0938-9.1777-1.1062-.3213-2.6254-1.1448-2.91-2.0616-1.8692-6.0264-3.4521-12.1415-5.1589-18.3381,8.6-.2806,8.8792-.152,13.6581,6.0167,4.4877,5.7928,13.628,4.9437,16.6463-1.6751.516-1.1316-.0247-2.7455-.0773-4.1366-1.1463.6957-2.7089,1.1243-3.3588,2.1384-1.76,2.7458-4.2818,4.3334-7.0186,2.8658a9.2669,9.2669,0,0,1-4.1921-5.8252c-.5674-3.23,2.069-4.7789,5.1235-5.5426,1.239-.31,2.2795-1.4145,3.41-2.1575-1.53-.6153-3.3688-2.0951-4.5321-1.68-3.1925,1.1388-4.8826-.2693-6.7845-2.3755q-6.8845-7.6246-14.0451-14.9976c-1.6548-1.7025-2.4666-3.0281-1.5024-5.6444a9.9932,9.9932,0,0,0-17.5451-9.0727c-1.6428,2.4174-3.3438,2.6723-5.8558,2.3355-6.483-.8694-12.9789-1.72-19.4972-2.2154-3.3587-.2552-5.5394-.9348-7-4.5381-1.8887-4.6589-7.1747-6.3134-11.88-4.6752a9.7771,9.7771,0,0,0-6.5461,11.4843c1.068,4.8794,5.4272,9,10.0673,7.7752,7.113-1.8769,8.8191,3.4837,12.8694,7.4086-6.6107,2.6133-12.4709,5.0215-18.4238,7.1729-.7872.2844-2.21-.53-3.06-1.1942-3.6924-2.8847-7.6792-3.54-11.8-1.3682a9.1472,9.1472,0,0,0-5.0533,10.1619c.7156,4.6913,3.7062,7.2672,8.122,8.6443a5.0189,5.0189,0,0,1,3.0116,2.6387C624.5751,861.26,626.0745,867.1428,627.8386,873.5462Zm54.61-382.1212c4.6353,13.4817,8.9317,26.4432,13.545,39.2908a46.26,46.26,0,0,0,53.2412,29.3068c10.7985-2.3735,21.5357-5.0266,32.3-7.554,2.5257-.5931,5.0506-1.19,7.9992-1.8843-4.7437-13.6871-9.038-26.9892-13.9631-40.0532-5.9064-15.667-17.7552-24.9887-33.8416-28.4085a47.0058,47.0058,0,0,0-17.9973-.0825C710.033,484.6121,696.5165,488.1607,682.4487,491.425ZM529.212,347.3773c.7529,6.8282,2.2061,8.32,8.8791,11.0189a18.5384,18.5384,0,0,1,6.7716,4.8549c4.11,4.7164,11.1412,7.4548,15.7708,5.5579,7.6346-3.1281,9.534-6.4241,8.4875-15.0008q-4.9857-40.8633-10.0578-81.7158c-.2846-2.2775-.6055-4.8284-1.81-6.66-3.3681-5.1225-11.9455-6.5894-18.2943-3.55-5.1287,2.4552-6.6268,6.6317-4.9311,13.7473-8.4565,2.6581-10.3063,6.9213-7.1791,16.8713-5.0774,2.7583-7.1888,6.9952-5.9276,12.8059a2.99,2.99,0,0,1-.3269,2.1672c-4.9306,6.6248-2.0784,11.92,2.8262,16.814C517.2668,334.6713,519.5025,343.4637,529.212,347.3773ZM737.0852,590.2966c6.8205,3.7294,13.1867,7.5942,19.9293,10.6189,1.6216.7275,5.5481-.6353,6.6-2.2328,3.9819-6.0462,7.2179-12.5842,10.9442-19.32l-7.1856-3.9342c-3.28,5.8781-6.2786,11.25-9.4812,16.989l-16.92-9.2748C739.6171,585.6364,738.4681,587.7514,737.0852,590.2966Zm-70.9281-70.7811c-3.7759,6.9056-7.62,13.3121-10.7158,20.0619-.7195,1.5684.417,5.3682,1.8821,6.3208,6.21,4.0378,12.8659,7.39,19.608,11.13l3.96-7.0756L663.9084,540.48c3.176-5.8589,6.1727-11.3872,9.2518-17.0675Zm68.8757-67.6593c-6.74-3.7186-12.8378-7.4612-19.3-10.4033-1.7843-.8123-5.8674-.0483-6.8146,1.3769-4.167,6.27-7.5722,13.0463-11.3808,19.8671l7.0138,3.9354c3.31-5.9444,6.3154-11.3409,9.53-17.1135l17.0208,9.2626C732.4487,456.4085,733.5777,454.42,735.0328,451.8562Zm56.1492,40.1365,16.91,9.4519c-3.172,5.8219-6.1759,11.3351-9.328,17.12l7.1691,3.9693c3.5831-6.4924,6.8956-12.4564,10.1694-18.4415,1.7131-3.1319,1.645-6.2443-1.5624-8.17-6.2243-3.7381-12.6686-7.11-19.4382-10.8638ZM599.72,325.0762c6.2077-2.5368,9.4565,1.7265,13.3793,3.5012a4.4464,4.4464,0,0,1,1.8667,3.9c-.6634,2.2611-1.9035,5.638-3.5481,6.0609-3.5326.9085-7.4748.1355-11.2417.2687a5.2969,5.2969,0,0,0-3.5268,1.2744,3.3679,3.3679,0,0,0-.0552,3.3187,4.4349,4.4349,0,0,0,3.5537,1.1463c3.9087-.7489,7.7-2.1848,11.6243-2.7536,2.9091-.4217,4.2306-1.4851,4.941-4.3973,2.1914-8.9839,2.3262-8.9512-5.758-13.2488-.6888-.3662-1.3949-.7021-2.0681-1.0946-2.7433-1.6-5.1406-2.3981-8.6148-.821-2.7012,1.2261-6.57.9049-9.563.038-1.5565-.4509-2.1515-3.7272-3.5488-5.4239a4.8715,4.8715,0,0,0-3.4656-1.6291,3.3479,3.3479,0,0,0-2.4043,2.2609c-.0894,1.145.633,3.0966,1.51,3.4493,4.62,1.8583,8.1946,7.1363,15.1936,3.3016-.5877,2.9828-1.1424,4.5358-1.1235,6.0818.0166,1.3527.3007,3.1122,1.1774,3.9109.6687.6091,3.3266.3833,3.5624-.1505a7.6549,7.6549,0,0,0,.2161-4.5146A22.578,22.578,0,0,0,599.72,325.0762ZM410.1011,692.744c3.791.033,9.4756-2.9753,13.3615-8.9217,1.23-1.8816,2.2609-6.2367,1.7029-6.56-3.4032-1.9738-4.3524,1.7514-5.8037,3.6054-7.2524,9.2649-16.2457,9.1865-22.8629-.5935-2.25-3.3246-3.6491-7.2177-5.8085-10.6147-.6948-1.0929-2.58-1.4284-3.9205-2.11-.2222,1.3647-1.0138,2.9658-.5634,4.0512,1.5473,3.7292,3.1032,7.5854,5.4407,10.8266C395.6168,687.9306,400.3383,692.7552,410.1011,692.744Zm-2.0094-46.0886a5.9518,5.9518,0,0,0,5.961-6.3357c-.1468-3.6811-2.18-5.6347-5.8759-5.761-3.8548-.1318-5.6948,2.1459-6.0535,5.6173C401.7943,643.36,405.02,646.6467,408.0917,646.6554Z" transform="translate(-249.3457 -130.74)"/><path class="cls-2" d="M588.3874,841.2174c-3.0616-.9262-8.9523-2.8458-14.9207-4.4811-8.5083-2.3312-17.0762-4.4443-25.6138-6.6693-5.6954-1.4842-11.5914-2.477-17.0171-4.6436-6.011-2.4-7.4484-7.0017-5.2173-13.0342.5939-1.6059,1.1848-3.2195,1.9-4.7731,4.059-8.8227-2.978-15.45-10.6512-14.7006A143.1131,143.1131,0,0,0,500.25,795.43a32.5514,32.5514,0,0,1-17.9425-1.0053c-8.3856-2.8781-12.4967-10.195-10.11-18.7693a73.0121,73.0121,0,0,1,5.2143-13.94c3.5216-6.8107,9.45-8.2077,16.1536-4.3834,2.7038,1.5424,5.24,3.3783,7.9434,4.9222,7.4663,4.2645,14.1947,2.3173,18.4794-5.238a44.7116,44.7116,0,0,1,3.5743-5.9994c3.5585-4.4553,9.5387-3.85,10.9173,1.6043,2.6069,10.3134,10.1951,11.5648,18.8334,12.5115,7.8169.8566,15.4751,3.2238,23.2946,3.9789,9.8632.9526,19.8212.9,29.7338,1.3746a69.5364,69.5364,0,0,1,11.5932,1.0319c7.9808,1.7577,11.02,8.023,7.0737,15.2518a66.4811,66.4811,0,0,1-9.4527,12.6663c-4.8411,5.2974-6.7417,11.4221-6.8376,18.3622-.0388,2.8068.013,5.6318-.287,8.415C607.3893,835.8865,601.151,841.3646,588.3874,841.2174Z" transform="translate(-249.3457 -130.74)"/><path class="cls-2" d="M615.2861,683.2023c-2.5934-.2092-4.7793-.2947-6.94-.5751a115.31,115.31,0,0,0-32.08.4024c-5.5633.8286-11.4706.0979-17.1267-.6523-6.2453-.8284-9.7379-5.0669-11.04-11.1551-.26-1.2181-.6192-2.4149-.9258-3.6233-2.6209-10.3275-11.9277-14.527-21.3859-9.5931-3.1716,1.6545-6.2457,3.4947-9.3833,5.2156-12.6813,6.9557-28.8372,3.5543-34.1253-8.1406-2.6669-5.8982-3.4129-12.8519-4.0416-19.4228-.442-4.62,2.7425-7.1443,7.5375-6.6828A64.1725,64.1725,0,0,1,497.1,631.5589c10.9712,3.14,15.4945-.4994,15.3232-11.955-.0392-2.6217.7039-6.45,2.4806-7.64,3.11-2.0825,6.3535.46,8.3885,3.096,5.3579,6.94,12.2377,8.6386,20.3873,6.6284,8.3446-2.0583,16.7465-2.2814,25.343-2.5389,8.5893-.2573,17.0037-4.4946,25.623-6.4093a35.8309,35.8309,0,0,1,13.2634-.6664c6.0307.9931,10.0922,7.2088,10.2939,14.5107a79.0668,79.0668,0,0,1-.7907,11.1695c-.7787,6.7537,1.479,12.4989,5.294,17.9041a85.14,85.14,0,0,1,6.9312,11.0448c4.3971,8.8623,1.3832,14.4752-8.2482,15.916C619.2392,682.9406,617.0554,683.0384,615.2861,683.2023Z" transform="translate(-249.3457 -130.74)"/><path class="cls-2" d="M546.3027,686.9351l.8274.73c.5855.9453,1.03,2.5734,1.7787,2.7276,5.94,1.2238,11.9055,2.4582,17.9257,3.1164,6.1635.6741,12.5289-.0553,18.1574,3.454a4.5253,4.5253,0,0,0,2.2672.3605q17.6351.0252,35.27-.026c1.2278-.0053,2.5593-.8084,3.6591-.5259a59.2584,59.2584,0,0,1,6.7019,2.531l.1469.19c.0807,4.274.5374,8.586.1128,12.8093-.2939,2.9234-1.8035,5.7246-2.77,8.58a.6583.6583,0,0,1-.2762.8c-1.3182,1.55-2.7662,3.009-3.9292,4.6679a12.3975,12.3975,0,0,0-1.0436,13.4487,22.6435,22.6435,0,0,1,2.2635,8.0327c.2433,3.4533-.3559,6.9659-.67,11.609-3.6965,2.304-7.89,7.105-14.6361,2.8162-.8981-.571-3.13.9573-4.7438,1.5135l-.3837-.1711a45.9342,45.9342,0,0,0-4.3916-2.2543c-1.3917-.5486-3.3152-.3392-4.2959-1.2378-4.5666-4.1839-10.5254-4.2968-15.9717-5.5249-8.1149-1.83-16.728-.6359-24.723-3.6311a26.7222,26.7222,0,0,1-3.1366-.9441c-6.32-3.3373-8.58-8.6892-7.54-15.6114q.0127-2.4725.0254-4.9455,1.133-6.6567-5.5239-7.7641-.4584-.26-.9167-.519c-.7215-1.044-1.46-2.999-2.1619-2.9862-4.8681.0891-9.9016-.0787-14.5468,1.1277a50.9777,50.9777,0,0,1-16.4547,1.7046c-4.6832-.3217-9.3292-1.1844-13.9917-1.8077l.3067-.1321-.2867.1671q-1.3332-1.0888-2.6694-2.1741l-.7979-.9015-2.151-2.9012-.7481-1.8353c.4193-.5574,1.2406-1.16,1.1847-1.6642-.1888-1.7014-1.13-3.41-.9766-5.0394a60.4577,60.4577,0,0,1,1.7963-9.3434c.7879-3.0628,1.0786-7.7117,3.04-8.66,2.695-1.3036,7.004-.4575,10.1721.6994,4.2574,1.5547,8.0225,4.4111,12.1173,6.4734,3.8118,1.92,7.2456.6607,8.373-2.764a.7.7,0,0,1,.7827-.4015l2.9012-2.8985.4805-.7816c1.3636-1.9325,2.6757-3.9043,4.1074-5.7849,1.1142-1.4636,2.1438-3.415,3.6563-4.0029,1.0116-.3932,3.1436.91,4.1642,2.0165,1.42,1.5395,2.0395,3.8107,3.4393,5.3773C543.2049,685.7522,544.9168,686.1978,546.3027,686.9351Z" transform="translate(-249.3457 -130.74)"/><path class="cls-2" d="M509.2417,402.5213c-4.9622,12.266,2.0931,23.184,9.6482,34.017a25.8529,25.8529,0,0,1,2.5651,5.4826c3.1343,8.0638-1.0929,13.4853-9.7133,13.2337-13.9038-.4058-27.8117-2.5732-41.7383.8214-3.8635.9417-8.38-.0878-12.4562-.91a12.897,12.897,0,0,1-10.2025-9.2531c-.7933-2.5227-1.4118-5.115-2.3958-7.5605-3.7253-9.2588-11.4193-11.8957-19.9887-6.9013-2.69,1.5678-5.2721,3.3194-7.9345,4.936-13.2315,8.0339-29.2279,1.7615-32.7647-13.1994a72.4494,72.4494,0,0,1-1.4269-16.1156c-.0216-3.5185,2.6981-5.3177,6.1073-4.8805a63.1287,63.1287,0,0,1,10.4144,2.3606c9.636,2.9568,14.3088-.4527,14.476-10.5714.0541-3.2733-1.3074-7.499,2.705-9.1752,4.5375-1.8956,6.6767,2.1235,8.8595,5.07,4.4763,6.042,10.5641,5.5448,16.9379,4.6485,6.8911-.969,13.855-1.445,20.7252-2.5288a162.3374,162.3374,0,0,0,16.2572-3.5719c3.1428-.8333,6.0635-2.4736,9.1788-3.4474C501.8093,380.8134,509.4765,386.6233,509.2417,402.5213Z" transform="translate(-249.3457 -130.74)"/><path class="cls-3" d="M431.0834,317.7827q1.7261.0041,3.4526.0084,4.1726.7956,8.3441,1.5907l.1183-.9374-3.43-.845c3.665-.1441,7.6057-1.2291,10.9418-.2506,8.9719,2.6317,17.54,1.1311,26.318-.615a46.1117,46.1117,0,0,1,13.7953-.8842c5.3618.588,8.34,3.7751,8.1439,9.15a51.1409,51.1409,0,0,1-3.2633,15.7828c-2.3226,6.2083-2.6875,11.9486-.1659,18.1068a60.0327,60.0327,0,0,1,3.1556,11.2387c1.0438,5.3526-1.2172,7.6662-6.6074,7.2683-8.6044-.6352-18.0555,1.1707-25.8019,3.4907-9.4208,2.8214-19.1288,3.0432-28.3982-.8474a16.8868,16.8868,0,0,1-10.6813-14.2727c-.2091-1.7021-.2172-3.4348-.5109-5.12-1.7244-9.8934-8.913-13.923-18.2241-10.2365-3.4717,1.3746-6.8518,3.0084-10.3826,4.2008-14.34,4.843-26.589-4.0391-26.0063-19.0609a55.3079,55.3079,0,0,1,2.4055-13.7377c1.6015-5.2849,5.5735-6.8476,10.6917-4.8169a79.0434,79.0434,0,0,1,7.1187,3.4829c7.5852,3.9324,12.7817,1.8863,15.6015-6.2314.7148-2.0577.8492-4.4471,2.0009-6.1866,1.1639-1.7578,3.1589-3.8139,4.9791-4.0137,1.4055-.1544,3.8617,2.0594,4.5247,3.743a17.3576,17.3576,0,0,0,8.7932,9.7575l.4044,1.4132Zm19.6684,1.0137-.0687-.6316-1.953.2618.0591.524Z" transform="translate(-249.3457 -130.74)"/><path class="cls-4" d="M577.5322,604.1825c-4.6188,1.3606-9.2422,2.7057-13.8554,4.0852-8.6571,2.5886-17.1381,3.656-26.008.1093-8.1638-3.2644-16.7938-5.3438-25.1185-8.2332-3.0228-1.0492-5.7569-2.931-8.6232-4.4328A82.7954,82.7954,0,0,1,480.5135,569.4c-2.5005-7.2085-5.0413-14.4035-7.4636-21.6382a20.1464,20.1464,0,0,1-.5057-4.0563q1.02-4.06,2.04-8.1207l-1.023-.2324q-.6255,2.2924-1.2512,4.5848-.0162-7.9-.0325-15.8007l1.3156,3.5964.9271-.1913-1.876-8.1015q.207-2.9619.4151-5.9234c3.1556-12.1735,8.5445-23.2315,17.0381-32.5516,4.0286-4.4206,8.64-8.31,12.9871-12.44q7.2759-4.1729,14.5519-8.3457c5.6006-3.2112,11.169-5.62,18.1-4.4252,4.3121.7431,8.959-.7463,13.4544-.736,41.1678.0944,75.0694,33.9295,75.7084,75.0214.2956,19.0164-5.4977,35.7336-16.992,50.6692-.7528.9782-1.3738,2.0577-2.0559,3.09-5.3307,4.4324-10.4855,9.1034-16.054,13.2135C586.0086,599.8093,581.6409,601.82,577.5322,604.1825Zm17.65-31.9744c.7012-.2946,1.7578-.39,2.05-.9136,4.1418-7.4088,9.9663-14.4559,11.8371-22.4239,3.0359-12.93,3.3742-26.4706-1.969-39.3383-8.7455-21.0615-24.098-34.484-46.4368-39.299-5.1658-1.1134-10.7015-.5089-16.067-.6949-27.0545,1.5338-51.1041,21.3944-56.76,46.8738a43.4582,43.4582,0,0,0-.5451,29.5415c8.4965,34.8883,42.7238,55.6054,77.3745,46.291C576.8039,588.9818,587.6735,582.943,595.1818,572.2081Z" transform="translate(-249.3457 -130.74)"/><path class="cls-2" d="M486.8245,310.2308c-4.6967-1.0357-9.3658-2.227-14.0972-3.067q-8.4527-1.5006-16.9935-2.4919c-5.2369-.6125-10.5967-.4623-15.748-1.4521-7.9759-1.5325-10.8907-6.0058-10.0528-14.127.1915-1.857.6554-3.6867.83-5.5444.7007-7.4469-5.3766-12.6692-12.5078-10.5411-4.1636,1.2426-8.1116,3.2-12.2626,4.4959a31.4549,31.4549,0,0,1-9.0783,1.7714c-10.9049.0235-17.0823-7.6663-14.5742-18.253a70.4393,70.4393,0,0,1,5.0747-14.945c3.4533-6.9851,8.4388-7.9015,14.981-3.5974,1.2995.8549,2.5507,1.7969,3.9071,2.549,3.69,2.0463,7.3836,1.8644,10.2624-1.2181a69.3446,69.3446,0,0,0,6.2414-8.6193c1.3018-1.9178,2.1338-4.2532,3.7346-5.8365a6.2257,6.2257,0,0,1,4.8251-1.7162c1.1517.2487,2.3393,2.3886,2.7035,3.8852,1.8693,7.6822,4.907,10.43,12.739,9.44a66.8453,66.8453,0,0,1,22.1736.9214c4.7831.9738,10.1253-.6314,15.1923-1.2744,4.6228-.5867,9.1929-1.8526,13.8213-2.07,7.0013-.3286,10.6037,3.8675,8.994,10.7378a40.8641,40.8641,0,0,1-5.2289,12.853c-5.5348,8.4814-6.4331,17.2445-3.7885,26.77a35.3558,35.3558,0,0,1,1.172,8.7588C499.2969,306.361,495.6952,309.81,486.8245,310.2308Z" transform="translate(-249.3457 -130.74)"/><path class="cls-3" d="M492.77,235.4974c-3.0146-.621-8.4511-2.0408-13.9784-2.7846-4.4217-.5949-8.9565-.3121-13.4365-.52-5.1008-.237-10.2914-.0833-15.2686-1.0235-5.3659-1.0135-7.3048-4.7931-6.1694-10.1584.74-3.4981,2.0363-6.9185,2.4111-10.4453.7015-6.6-3.2335-9.8863-9.53-7.9326-4.5937,1.4252-8.8731,3.8988-13.4908,5.2023-4.41,1.2447-9.1291,2.4093-13.6161,2.1192-6.5305-.4221-9.9568-5.5543-8.5-11.9388,1.89-8.2868,5.348-15.952,11.2075-22.2829,4.783-5.1678,8.4289-5.4824,14.3254-1.539,5.7548,3.8486,8.7451,3.954,13.7852-.6479,3.1773-2.9009,5.5711-6.6456,8.4594-9.8842a33.9115,33.9115,0,0,1,5.978-5.7379c2.7314-1.8449,4.6648-1.1143,4.8239,2.6451.3437,8.1171,1.7961,9.6646,9.8416,8.831a152.5283,152.5283,0,0,1,23.6482-.3927c7.52.381,15.2131-2.6233,22.8279-4.1492,4.2388-.8494,9.0763-2.8855,12.1955,1.3051,3.0544,4.1036.0344,8.4347-1.9926,12.1683a74.4363,74.4363,0,0,1-7.1476,10.3594c-5.736,7.2758-8.8209,15.28-7.9689,24.6969a38.6459,38.6459,0,0,1-.3713,8.8568C509.47,231.581,504.7292,235.5572,492.77,235.4974Z" transform="translate(-249.3457 -130.74)"/><path class="cls-3" d="M471.7627,853.3494c-3.15.3591-7.35,1.3552-11.4978,1.172a42.1378,42.1378,0,0,1-13.5444-2.4723c-5.4637-2.1738-7.8777-7.5872-5.2351-12.717a92.9508,92.9508,0,0,1,12.2739-17.891c3.2463-3.7649,8.698-3.1539,12.7661.0656,1.3429,1.0628,2.56,2.284,3.896,3.3566,6.34,5.0906,10.8314,4.96,16.9-.6289,2.1735-2.0016,3.8581-4.6369,6.2547-6.26A9.7212,9.7212,0,0,1,500.22,816.3c1.14.2306,2.1874,3.3567,2.3992,5.2746.5652,5.12,2.8335,8.1688,8.14,9.4623,2.7153.6619,5.5362.8783,8.2942,1.38,3.3691.6127,7.2184.4781,9.992,2.1277,9.55,5.68,20.0049,5.142,30.4033,5.7137a39.8365,39.8365,0,0,1,11.3469,2.29c4.1373,1.5129,5.4237,4.9256,3.19,8.6829-2.0209,3.3986-4.5423,6.92-7.7167,9.1329a52.5278,52.5278,0,0,0-20.484,26.9217c-4.2993,12.4384-14.9484,17.0789-26.6353,11.1788-11.0745-5.591-22.5279-9.4545-34.2612-13.1166-9.7043-3.0288-10.7243-8.0472-4.6505-16.1379.0936-.1247.2109-.2322.2982-.3606,2.39-3.5168,6.2177-6.7119,3.523-11.6329C481.5573,852.6484,476.965,853.5023,471.7627,853.3494Z" transform="translate(-249.3457 -130.74)"/><path class="cls-5" d="M620.5335,585.0386c4.6464-9.149,9.1772-18.07,13.744-27.0623,35.7819,17.8751,72.0587,35.9985,108.3367,54.12,6.5341,3.2639,13.0854,6.4935,19.6056,9.785,5.0793,2.5641,5.6372,4.47,3.0376,9.649-2.3693,4.72-4.6823,9.4685-7.0478,14.1906a7.2687,7.2687,0,0,1-9.7518,3.2541q-39.4619-19.667-78.9095-39.3622-23.9954-11.9728-47.986-23.9552A9.1087,9.1087,0,0,1,620.5335,585.0386Z" transform="translate(-249.3457 -130.74)"/><path class="cls-6" d="M627.8386,873.5462c-1.7641-6.4034-3.2635-12.2863-5.0835-18.0681a5.0189,5.0189,0,0,0-3.0116-2.6387c-4.4158-1.3771-7.4064-3.953-8.122-8.6443a9.1472,9.1472,0,0,1,5.0533-10.1619c4.1207-2.1714,8.1075-1.5165,11.8,1.3682.8493.6637,2.2725,1.4786,3.06,1.1942,5.9529-2.1514,11.8131-4.56,18.4238-7.1729-4.05-3.9249-5.7564-9.2855-12.8694-7.4086-4.64,1.2245-8.9993-2.8958-10.0673-7.7752a9.7771,9.7771,0,0,1,6.5461-11.4843c4.7054-1.6382,9.9914.0163,11.88,4.6752,1.4608,3.6033,3.6415,4.2829,7,4.5381,6.5183.4954,13.0142,1.346,19.4972,2.2154,2.512.3368,4.213.0819,5.8558-2.3355a9.9932,9.9932,0,0,1,17.5451,9.0727c-.9642,2.6163-.1524,3.9419,1.5024,5.6444q7.16,7.3664,14.0451,14.9976c1.9019,2.1062,3.592,3.5143,6.7845,2.3755,1.1633-.4149,3.0017,1.0649,4.5321,1.68-1.1308.743-2.1713,1.8478-3.41,2.1575-3.0545.7637-5.6909,2.3128-5.1235,5.5426a9.2669,9.2669,0,0,0,4.1921,5.8252c2.7368,1.4676,5.2589-.12,7.0186-2.8658.65-1.0141,2.2125-1.4427,3.3588-2.1384.0526,1.3911.5933,3.005.0773,4.1366-3.0183,6.6188-12.1586,7.4679-16.6463,1.6751-4.7789-6.1687-5.0586-6.2973-13.6581-6.0167,1.7068,6.1966,3.29,12.3117,5.1589,18.3381.2844.9168,1.8036,1.74,2.91,2.0616,4.6974,1.3642,7.6019,4.3073,8.0938,9.1777a9.3683,9.3683,0,0,1-4.8711,9.4238c-4.0655,2.3951-7.9658,1.6284-11.8289-.9542a6.1173,6.1173,0,0,0-4.702-.798c-5.558,1.93-10.9724,4.274-17.094,6.7284A93.6665,93.6665,0,0,0,682.4745,905c.7812.6707,2.5194.5452,3.74.3293,5.8893-1.0415,10.6236,1.5083,12.2449,6.764a10.1874,10.1874,0,0,1-5.84,12.3219c-5.1239,2.0156-10.26-.3747-13.1814-5.7294a6.2525,6.2525,0,0,0-3.8857-2.938c-7.3909-1.1011-14.8415-1.7959-22.2626-2.7024-2.3574-.2879-3.9008.1663-5.37,2.4546a9.9628,9.9628,0,0,1-17.633-8.639c.99-2.9268.0971-4.53-1.7806-6.4713-4.8712-5.0364-9.595-10.2177-14.3023-15.4095-1.57-1.7313-2.9672-2.1879-5.5556-1.91-2.9233.3136-6.134-1.1253-9.0434-2.2562-.7417-.2882-.8165-2.2941-1.1977-3.5108,1.2308.0985,2.7263-.2157,3.6429.3727,2.7715,1.7791,5.7657,2.7847,7.9768.0488a8.7329,8.7329,0,0,0,1.3526-6.6875c-.7483-3.0774-3.5288-3.908-6.755-3.4207-1.3687.2068-2.8781-.5185-4.3234-.82,1.25-1.1237,2.3323-2.869,3.78-3.2608,5.4888-1.485,9.4531,1.412,12.4844,8.7443,1.7309.2494,3.5581.5559,5.3964.7654C623.7741,873.2515,625.5976,873.36,627.8386,873.5462Zm70.7615.8591.3966.5888c.0947-.0993.2847-.265.269-.2874a4.9778,4.9778,0,0,0-.4565-.5193c-1.6365-6.5832-3.23-13.1777-4.9738-19.7323a2.8222,2.8222,0,0,0-1.924-1.6c-3.208-.5226-6.447-.9216-9.69-1.1215a3.2247,3.2247,0,0,0-2.5992,1.2159c-.3411.653.0981,2.0132.6253,2.7558a31.159,31.159,0,0,0,3.4345,3.7683Q691.1229,866.9576,698.6,874.4053Zm-50.5233-58.8571c-.2754.1624-1.7217.5284-2.013,1.32a3.74,3.74,0,0,0,.8575,3.0895c4.6621,5.2177,9.4252,10.3467,14.2228,15.441,5.2656,5.5913,11.0495,4.7433,14.4537-2.05.9075-1.8108,1.8738-3.5949,2.7075-5.4391,1.223-2.7052-2.2456-9.2695-5.1449-9.6082C665.12,817.3621,657.0671,816.5271,648.0768,815.5482Zm29.2521,95.99c.3234-.1685,2.0918-.536,2.3513-1.3722.2948-.95-.4779-2.57-1.2746-3.4638-4.5432-5.0958-9.2211-10.072-13.8743-15.0693-5.1741-5.5567-11.0906-4.6329-14.54,2.25-.9062,1.8082-1.8818,3.586-2.6983,5.4339-1.1313,2.5605,2.5959,9.19,5.3816,9.5117C660.547,909.7391,668.4291,910.5667,677.3289,911.5385ZM633.03,846.0971c-.3833.1879-2.1153.5543-2.2252,1.198a4.758,4.758,0,0,0,1.1007,3.5182c5.3038,5.8774,10.7243,11.6509,16.1714,17.3969,2.07,2.184,9.3276,1.2457,10.7485-1.3715,1.5576-2.8688,3.035-5.7875,4.4009-8.752.9685-2.102-2.54-8.765-4.7992-9.0452C650.2517,848.027,642.0616,847.1335,633.03,846.0971Zm75.0033,4.3184c.3867-.1992,2.0961-.594,2.1975-1.241a4.8069,4.8069,0,0,0-1.143-3.4881c-4.663-5.2064-9.4508-10.3023-14.25-15.3847-5.0162-5.3119-10.911-4.3361-14.2375,2.3005-.907,1.8095-1.8785,3.59-2.7084,5.4338-1.1752,2.6111,2.3692,9.2853,5.1946,9.6209C691.1154,848.6107,699.1592,849.4435,708.033,850.4155Zm-42.5465,27.54c8.69.9538,17.3328,1.96,25.9933,2.7842,1.1568.11,2.4015-.7038,3.6054-1.09-.4495-1.174-.6085-2.6121-1.3957-3.4794-5.2231-5.7541-10.5522-11.4134-15.928-17.0257-.75-.7826-2.0347-1.7266-2.9186-1.5914-4.2751.6533-8.543.8717-10.2578,6.5065-1.2077,3.9684-3.8837,7.34-.11,11.2126C665.05,875.8615,665.123,876.9394,665.4865,877.9553Zm-48.0086-1.2648c-.385.2183-1.9106.5847-2.1434,1.3466a3.9751,3.9751,0,0,0,1.0185,3.1486c4.6883,5.1646,9.501,10.2164,14.2885,15.29,5.2566,5.571,11,4.7394,14.4166-2.0747.8348-1.665,1.6876-3.322,2.4735-5.01,1.4336-3.0791-1.77-9.3553-5.1648-9.7924C634.3656,878.5688,626.3418,877.7142,617.4779,876.6905Zm14.6786-35.8185.11,1.0686c9.0285,1.0432,18.0518,2.1439,27.1009,2.9584.4479.04,1.9613-3.0351,1.5447-3.5984a63.233,63.233,0,0,0-6.8944-7.5163,2.8678,2.8678,0,0,0-2.4865-.4653C645.0445,835.76,638.6078,838.3355,632.1565,840.872Zm61.05,45.5428.2378-1.2451c-9.03-1.0306-18.0431-2.2822-27.0992-2.9606-2.82-.2112-3.2,2.0653-1.3912,4.1388a48.4259,48.4259,0,0,0,5.831,5.9994,5.2722,5.2722,0,0,0,4.22,1.0362C681.14,891.2588,687.1516,888.7742,693.2063,886.4148Zm-65.9091-34.4861-.96.5163c1.8585,6.8076,3.6772,13.6268,5.6392,20.4044A2.7946,2.7946,0,0,0,633.92,874.35a80.3578,80.3578,0,0,0,9.7067,1.0757c2.9246.09,3.7692-1.8139,1.9333-3.87C639.6089,864.8911,633.4041,858.4536,627.2972,851.9287Zm64.6356-33.878c-.1415-3.7489-3.2454-6.6228-6.556-6.2439-3.3626.3848-5.3951,2.3322-5.5222,5.799a5.954,5.954,0,0,0,6.269,6.063C689.8587,823.4546,691.5829,821.19,691.9328,818.0507Zm18.2776,66.418c-.3827-3.6113-2.19-6.0517-5.8463-6.1192-3.4933-.0646-5.9532,1.7765-6.2266,5.5532a6.006,6.006,0,0,0,6.0184,6.35C707.9263,890.1907,709.6638,887.8959,710.21,884.4687ZM694.93,914.5813c-.6427-3.388-2.4063-5.7673-6.1742-5.6357-3.5841.1251-5.8514,2.0333-5.9438,5.8144-.0816,3.3382,3.091,6.4516,6.3347,6.1026C692.7323,920.4769,694.6121,918.2384,694.93,914.5813Zm-73.1928-77.75c-3.682.2389-5.8726,2.1372-6.2,5.742a6.0571,6.0571,0,0,0,6.1529,6.2353c3.5669-.2566,5.8722-2.29,5.8308-5.963C627.48,839.25,625.3364,837.2016,621.7368,836.831Zm33.1452,36.0174a5.8,5.8,0,0,0-5.6668,6.13c.3709,3.5213,2.2971,5.7508,6.0565,5.7211,3.7322-.0295,5.7542-2.1362,5.93-5.7741A6.1105,6.1105,0,0,0,654.882,872.8484Zm-17.5644-54.6578c3.4339-.3262,5.6016-2.4016,5.541-5.99a5.5476,5.5476,0,0,0-5.91-5.8621c-3.5876-.0262-5.8053,2.1129-6.0644,5.73C630.6424,815.4455,633.6992,818.2974,637.3176,818.1906Zm2.5362,97.2027c3.6172-.3781,5.8552-2.2172,6.0731-5.8736.1952-3.2752-2.9476-6.1681-6.3155-6.0967a5.668,5.668,0,0,0-5.6644,6.042C634.2125,913.092,636.318,915.021,639.8538,915.3933Zm36.6871-66.6254a6.1222,6.1222,0,0,0-6.2614-6.3721c-3.461.14-5.4353,2.1745-5.788,5.4842a6.0274,6.0274,0,0,0,6.0264,6.3039C674.1539,854.1,676.1724,852.1032,676.5409,848.7679Z" transform="translate(-249.3457 -130.74)"/><path class="cls-7" d="M682.4487,491.425c14.0678-3.2643,27.5843-6.8129,41.2839-9.3849a47.0058,47.0058,0,0,1,17.9973.0825c16.0864,3.42,27.9352,12.7415,33.8416,28.4085,4.9251,13.064,9.2194,26.3661,13.9631,40.0532-2.9486.6947-5.4735,1.2912-7.9992,1.8843-10.7648,2.5274-21.502,5.18-32.3,7.554a46.26,46.26,0,0,1-53.2412-29.3068C691.38,517.8682,687.084,504.9067,682.4487,491.425Zm55.9318,60.47c21.4594.4508,35.6534-19.525,27.98-39.3769-5.9658-15.4338-23.5964-25.0339-39.77-21.6553-18.0589,3.7723-27.5224,20.898-21.1266,38.2318C710.3672,542.3838,723.6518,551.5856,738.3805,551.895Z" transform="translate(-249.3457 -130.74)"/><path class="cls-8" d="M503.0842,468.5254c-4.3473,4.13-8.9585,8.0189-12.9871,12.44-8.4936,9.32-13.8825,20.3781-17.0381,32.5516-2.542,1.9559-5.3953,3.6167-7.5725,5.9176-12.4044,13.11-31.0082,10.2564-38.5739-6.2473a68.1074,68.1074,0,0,1-4.7654-14.5067c-1.0027-4.8635,1.4772-7.4475,6.4206-7.3533,3.71.0707,7.4105.7314,11.1132,1.1472,8.0573.9047,12.0657-3.5843,10.3414-11.5732-.4907-2.2737-1.2609-4.5568-1.2766-6.84-.0115-1.6653.5583-4.2195,1.6747-4.7848,1.4125-.7153,3.7121-.05,5.4942.4763,1.0911.3223,1.9817,1.4468,2.8724,2.3045,5.2632,5.0679,11.435,6.7489,17.94,3.3073C485.0533,470.9594,493.9219,469.3421,503.0842,468.5254Z" transform="translate(-249.3457 -130.74)"/><path class="cls-9" d="M529.212,347.3773c-9.7095-3.9136-11.9452-12.706-5.7913-23.0891-4.9046-4.8944-7.7568-10.1892-2.8262-16.814a2.99,2.99,0,0,0,.3269-2.1672c-1.2612-5.8107.85-10.0476,5.9276-12.8059-3.1272-9.95-1.2774-14.2132,7.1791-16.8713-1.6957-7.1156-.1976-11.2921,4.9311-13.7473,6.3488-3.0393,14.9262-1.5724,18.2943,3.55,1.2042,1.8314,1.5251,4.3823,1.81,6.66q5.1042,40.8485,10.0578,81.7158c1.0465,8.5767-.8529,11.8727-8.4875,15.0008-4.63,1.8969-11.6611-.8415-15.7708-5.5579a18.5384,18.5384,0,0,0-6.7716-4.8549C531.4181,355.6969,529.9649,354.2055,529.212,347.3773Zm23.5584-41.673c-1.0639.7925-1.9961,2.0838-2.9359,2.0894-5.8139.0346-5.7308,4.9088-7.27,8.4676-.2881.6662-.57,1.335-.8545,2.0027l-1.5057-.3688,1.7156-8.4016c-3.9767-4.4574-7.5693-8.3289-10.9767-12.3573-2.3465-2.7741-4.3025-1.8914-6.099.3915-2.6536,3.3724-1.4873,8.6119,2.38,11.4808,1.1759.8723,2.2679,1.8578,3.3983,2.7914l-.8244,1.2524-7.8742-3.9693c-.2607,2.459-.8431,4.5124-.6216,6.4749.8342,7.3917,7.3287,6.9338,12.7757,8.2057a7.043,7.043,0,0,1-3.5815,1.88c-6.8965,1.15-9.6269,6.2182-6.8957,12.9032,2.5769,6.3076,5.7375,6.743,10.0146,1.4226,1.1968-1.4888,2.5252-2.8717,3.7932-4.3031l1.3321,1.0263c-1.8467,3.103-3.7555,6.171-5.5237,9.3181-1.9941,3.549-.9446,6.3434,2.5173,8.1912,1.6292.87,3.5719,1.1675,5.1641,2.086a19.8005,19.8005,0,0,1,5.5957,4.1139c2.77,3.3977,5.52,6.3072,10.4283,5.4578,1.6131-7.6229-.39-13.7829-6.8653-18.636a8.6726,8.6726,0,0,1,4.3591,1.2049c6.5519,3.7675,4.6967,10.8456,6.8592,17.0125,2.1763-1.8732,5.1173-4.0145,5.1529-6.203.11-6.7761-.886-13.57-1.4532-20.3631-13.4119,1.5361-22.6554-3.56-21.5114-10.1717,2.5151,2.1174,5.17,5.5629,8.6433,6.94,3.5464,1.4056,7.8973.78,12.4218,1.078-.7949-6.1762-1.4014-10.8892-1.9588-15.2208L551.9627,319.71q.085-.824.17-1.6479h9.9989c-.7249-5.7037-1.381-10.781-2.0128-15.8612-.6733-5.4135-2.4432-7.2521-7.9324-8.1084-1.837-.2866-3.6873-.4874-5.5315-.7275q.1059-1.0294.2119-2.0589l11.4937.9234c-.0484.0895.246-.1939.216-.4374-.8191-6.6516-1.6-13.3092-2.537-19.9447-1.02-7.2257-7.5712-10.935-14.36-8.2473-6.7152,2.6587-7.8426,7.8542-2.86,13.1277,1.158,1.2256,2.2759,2.4891,3.4122,3.7352l-.838,1.1049c-1.1895-.4859-2.3565-1.3066-3.5732-1.3885-2.5858-.1741-6.5059-.9729-7.5009.3185-1.6091,2.0883-2.7307,6.5808-1.537,8.4225a68.8935,68.8935,0,0,0,12.9564,15.0924c2.0881,1.7681,6.6263.6372,10.0494.8413C551.9115,304.8609,552.0236,305.0474,552.77,305.7043Z" transform="translate(-249.3457 -130.74)"/><path class="cls-10" d="M371.0277,636.4047c12.54-15.1534,28.7259-24.4746,47.5018-29.5832,1.2479-.34,2.71.1073,4.0712.1838.2174.4113.4354.827.6534,1.2428-1.6217,1.2892-3.0523,3.2156-4.8948,3.7688-18.0863,5.4291-33.4447,14.883-45.25,29.5091,6.013,4.87,11.5993,9.8814,17.6727,14.2087,11.6013,8.2661,24.4987,13.6137,38.7526,15.1148,3.1816.3351,6.4941-.3542,9.723-.7583,2.6269-.3289,3.9083-1.603,3.8384-4.6726-.1-4.3823,3.1273-7.3017,7.2988-7.4192a8.1811,8.1811,0,0,1,8.2212,6.8848c.642,3.6615-2.2005,8.1067-6.1146,8.7325a154.3136,154.3136,0,0,1-18.1744,2.1277c-16.5613.655-30.9544-5.8039-44.5434-14.4645-6.9687-4.4413-13.3747-9.5569-18.8887-17.126-1.5243,3.7927-3.2423,7.3118-4.2254,11.0256-.2571.9713,1.55,2.8321,2.7905,3.7916,3.3031,2.5556,4.9753,5.5238,3.4414,9.6958a7.9723,7.9723,0,0,1-8.9609,5.0943c-4.715-.9321-7.4817-6.2118-5.7759-11.0049,1.4341-4.03,2.6218-8.168,4.3477-12.0681,1.753-3.9611,4.0314-7.69,6.0769-11.5187Q369.8056,637.7883,371.0277,636.4047Zm-5.15,25.262c-1.5052,1.87-3.0663,2.9617-3.019,3.9785.052,1.1155,1.5871,2.1618,2.4759,3.2383.9822-.9432,2.5744-1.7764,2.77-2.8614C368.2882,665.0007,366.9993,663.7139,365.8778,661.6667Zm88.8019,4.1586c-1.9182-1.36-3.0183-2.74-4.1029-2.7274-.93.01-2.7048,1.78-2.5709,2.4753a4.509,4.509,0,0,0,2.61,3.1073C451.4583,668.887,452.75,667.26,454.68,665.8253Z" transform="translate(-249.3457 -130.74)"/><path class="cls-11" d="M480.5135,569.4a82.7954,82.7954,0,0,0,23.4136,26.3112c-9.093,12.1506-28.3923,12.1541-36.7441-.4582a66.9019,66.9019,0,0,1-7.5412-16.92c-2.1892-6.9957,1.874-10.9939,9.3-10.1122C472.7917,568.6779,476.656,569.0108,480.5135,569.4Z" transform="translate(-249.3457 -130.74)"/><path class="cls-12" d="M423.2541,608.2481c-.218-.4158-.436-.8315-.6534-1.2428-2.1775-3.4345-4.248-6.9532-6.66-10.2193-.3287-.445-2.4826.1236-3.59.6483-4.7929,2.27-9.4008.9417-11.4563-3.4635A7.6841,7.6841,0,0,1,404.5,583.6542c4.5947-2.265,8.7244-.6456,11.0682,4.3387a10.5675,10.5675,0,0,0,1.2067,2.4668c4.418,5.126,8.9029,10.1942,13.4545,15.38,6.9908-2.0243,14.07-.2352,19.9221,4.81,5.6331,4.8564,6.6935,11.699,4.0252,18.4315-2.0931,5.2811-5.2605,10.1712-8.3133,15.0059-.6.9495-2.8589.85-4.3527,1.2344.1581-1.4832-.0852-3.1708.5467-4.4126,2.247-4.4159,5.53-8.4341,7.0681-13.0535,3.0367-9.1178-.5626-14.7988-9.93-16.9561a67,67,0,0,0-7.872-.88c1.2617,7.095,2.597,13.6007,3.5466,20.1623a84.1184,84.1184,0,0,1-2.7008,35.1258c-.4225,1.5-2.404,2.5613-3.6634,3.8259-.4423-1.6762-1.588-3.5289-1.2189-5.0015a93.7635,93.7635,0,0,0-.201-47.6111C426.317,613.628,424.5567,610.9989,423.2541,608.2481Zm-14.79-21.5458c-1.5162,1.75-3.1322,2.802-3.1212,3.837a3.8257,3.8257,0,0,0,2.709,2.7,3.8839,3.8839,0,0,0,2.8829-2.5191C411.11,589.776,409.6651,588.5313,408.464,586.7023Z" transform="translate(-249.3457 -130.74)"/><path class="cls-9" d="M573.8269,330.2061l1.2941,4.958a44.99,44.99,0,0,1,6.1953-2.5142,6.9822,6.9822,0,0,1,4.5162.2975c.6.3068.828,2.944.2185,3.626-.81.9065-2.6067,1.278-3.9715,1.26a47.49,47.49,0,0,1-6.4413-.9087c-.8868,14.5354,4.61,24.36,14.49,24.6061-1.2255-4.1437-2.4655-7.9314-3.4207-11.79-.3247-1.3119-.4143-3.1652.2858-4.0953a3.71,3.71,0,0,1,3.68-.4919c.9186.6893,1.309,2.4938,1.3685,3.8405.1712,3.8708.06,7.754.06,11.5511,8.461.6189,12.1464-2.615,12.8176-10.2032a5.9884,5.9884,0,0,1,2.3766-3.81c.5239-.3738,3.2834,1.0671,3.2324,1.4375a12.7932,12.7932,0,0,1-1.7834,4.58,42.8151,42.8151,0,0,1-4.8319,7.2219c-1.508,1.6573-3.7148,2.7-5.6811,3.9019-.4718.2882-1.29-.0418-1.8327.188-9.1091,3.8593-14.8751-1.951-20.7807-7.2234a4.8425,4.8425,0,0,1-1.4687-2.7721c-.9767-7.8752-1.8218-15.7668-2.7072-23.6534Z" transform="translate(-249.3457 -130.74)"/><path class="cls-13" d="M737.0852,590.2966c1.3829-2.5452,2.5319-4.66,3.8869-7.1539l16.92,9.2748c3.2026-5.7386,6.2007-11.1109,9.4812-16.989l7.1856,3.9342c-3.7263,6.7358-6.9623,13.2738-10.9442,19.32-1.0521,1.5975-4.9786,2.96-6.6,2.2328C750.2719,597.8908,743.9057,594.026,737.0852,590.2966Z" transform="translate(-249.3457 -130.74)"/><path class="cls-14" d="M666.1571,519.5155l7.0031,3.8965c-3.0791,5.68-6.0758,11.2086-9.2518,17.0675l16.9828,9.4734-3.96,7.0756c-6.7421-3.7407-13.3978-7.0925-19.608-11.13-1.4651-.9526-2.6016-4.7524-1.8821-6.3208C658.5375,532.8276,662.3812,526.4211,666.1571,519.5155Z" transform="translate(-249.3457 -130.74)"/><path class="cls-14" d="M735.0328,451.8562c-1.4551,2.5633-2.5841,4.5523-3.931,6.9252l-17.0208-9.2626c-3.2145,5.7726-6.22,11.1691-9.53,17.1135l-7.0138-3.9354c3.8086-6.8208,7.2138-13.5973,11.3808-19.8671.9472-1.4252,5.03-2.1892,6.8146-1.3769C722.195,444.395,728.2931,448.1376,735.0328,451.8562Z" transform="translate(-249.3457 -130.74)"/><path class="cls-14" d="M791.182,491.9927l3.92-6.9342c6.77,3.7542,13.2139,7.1257,19.4382,10.8638,3.2074,1.9261,3.2755,5.0385,1.5624,8.17-3.2738,5.9851-6.5863,11.9491-10.1694,18.4415l-7.1691-3.9693c3.1521-5.7852,6.156-11.2984,9.328-17.12Z" transform="translate(-249.3457 -130.74)"/><path class="cls-15" d="M599.72,325.0762a22.578,22.578,0,0,1,2.1065,4.479,7.6549,7.6549,0,0,1-.2161,4.5146c-.2358.5338-2.8937.76-3.5624.1505-.8767-.7987-1.1608-2.5582-1.1774-3.9109-.0189-1.546.5358-3.099,1.1235-6.0818-6.999,3.8347-10.5739-1.4433-15.1936-3.3016-.8769-.3527-1.5993-2.3043-1.51-3.4493a3.3479,3.3479,0,0,1,2.4043-2.2609,4.8715,4.8715,0,0,1,3.4656,1.6291c1.3973,1.6967,1.9923,4.973,3.5488,5.4239,2.993.8669,6.8618,1.1881,9.563-.038,3.4742-1.5771,5.8715-.7785,8.6148.821.6732.3925,1.3793.7284,2.0681,1.0946,8.0842,4.2976,7.9494,4.2649,5.758,13.2488-.71,2.9122-2.0319,3.9756-4.941,4.3973-3.9239.5688-7.7156,2.0047-11.6243,2.7536a4.4349,4.4349,0,0,1-3.5537-1.1463,3.3679,3.3679,0,0,1,.0552-3.3187,5.2969,5.2969,0,0,1,3.5268-1.2744c3.7669-.1332,7.7091.64,11.2417-.2687,1.6446-.4229,2.8847-3.8,3.5481-6.0609a4.4464,4.4464,0,0,0-1.8667-3.9C609.1761,326.8027,605.9273,322.5394,599.72,325.0762Z" transform="translate(-249.3457 -130.74)"/><path class="cls-12" d="M371.0277,636.4047q-1.2207,1.383-2.4386,2.7648c-6.5481-4.2768-7.7149-11.1361-7.5824-17.9641.1263-6.5116,3.8965-11.2263,10.1016-13.8734,7.1705-3.0589,14.5249-2.9337,21.9245-1.4824,1.06.2079,1.81,1.9953,2.703,3.0517-1.2631.6123-2.5169,1.7218-3.7911,1.7457-4.176.0786-8.38-.5809-12.536-.3344-10.5041.6228-15.588,8.3093-12.149,18.2053A75.2733,75.2733,0,0,0,371.0277,636.4047Z" transform="translate(-249.3457 -130.74)"/><path class="cls-16" d="M577.5322,604.1825c4.1087-2.3622,8.4764-4.3732,12.2649-7.17,5.5685-4.11,10.7233-8.7811,16.054-13.2135,7.7116,8.275,5.7662,15.8528-5.24,18.0812C593.0714,603.4069,585.2355,603.467,577.5322,604.1825Z" transform="translate(-249.3457 -130.74)"/><path class="cls-10" d="M410.1011,692.744c-9.7628.0112-14.4843-4.8134-18.4539-10.3175-2.3375-3.2412-3.8934-7.0974-5.4407-10.8266-.45-1.0854.3412-2.6865.5634-4.0512,1.3406.682,3.2257,1.0175,3.9205,2.11,2.1594,3.397,3.559,7.29,5.8085,10.6147,6.6172,9.78,15.6105,9.8584,22.8629.5935,1.4513-1.854,2.4-5.5792,5.8037-3.6054.558.3237-.4733,4.6788-1.7029,6.56C419.5767,689.7687,413.8921,692.777,410.1011,692.744Z" transform="translate(-249.3457 -130.74)"/><path class="cls-3" d="M632.89,699.3023a59.2584,59.2584,0,0,0-6.7019-2.531c-1.1-.2825-2.4313.5206-3.6591.5259q-17.6347.0765-35.27.026a4.5253,4.5253,0,0,1-2.2672-.3605c-5.6285-3.5093-11.9939-2.78-18.1574-3.454-6.02-.6582-11.986-1.8926-17.9257-3.1164-.7483-.1542-1.1932-1.7823-1.7787-2.7276,5.4307,1.1164,10.8327,2.4079,16.2994,3.3042,6.5657,1.0764,13.3588,1.1639,19.7434,2.8529,9.81,2.5953,19.5055.96,29.2806.8583a100.8477,100.8477,0,0,1,16.5193,1.693C630.3965,696.5962,631.5906,698.2861,632.89,699.3023Z" transform="translate(-249.3457 -130.74)"/><path class="cls-17" d="M567.6776,286.2248q1.8729,1.4841,3.7459,2.9681l1.8262-.2353a13.02,13.02,0,0,1,2.7-1.6963,28.421,28.421,0,0,1,4.1625-.7724q.2973,2.196.5947,4.392l-1.9371,1.1613-9.8152-.578c0,2.2554,0,3.7312-.0021,5.2088q.2964,1.8016.5969,3.6l.5019,3.8592q.8277,1.2786,1.6551,2.5573c3.4772-1.0717,6.9159-2.314,10.4545-3.1137a4.4653,4.4653,0,0,1,3.5845,1.2253,3.2975,3.2975,0,0,1-.08,3.2572,5.0323,5.0323,0,0,1-3.5388,1.3377,42.5732,42.5732,0,0,1-6.2015-1.03l-3.6446.4744c-3.15,1.3269-4.6713.4555-4.1939-3.1129q-.222-1.3309-.4484-2.6584-.3189-2.4042-.6377-4.8082-.1763-1.3512-.3527-2.7025-.2184-1.9386-.4348-3.879-.2213-1.3308-.447-2.6582-.3189-2.404-.6376-4.8081-.1764-1.3514-.3527-2.7025-.2178-1.9385-.4334-3.8787-.222-1.3309-.4485-2.6585-.3188-2.4042-.6376-4.8084l-.5574-2.708c-.6039-1.4418-1.976-3.1577-1.5882-4.2456.3626-1.0173,2.59-1.3734,4-2.0116,2.2234-1.0062,4.3933-2.1714,6.6925-2.9567a54.2955,54.2955,0,0,1,6.2589-1.3885l-3.8865,3.0292-7.1235,3.83-1.1161,2.4557q-.2477,1.6429-.4951,3.2858l.3636,2.7225q.14,1.4914.2773,2.9847.2985,1.777.6,3.5507.2,1.9557.3976,3.9131Q567.3771,284.4269,567.6776,286.2248Z" transform="translate(-249.3457 -130.74)"/><path class="cls-3" d="M546.9019,734.3949c-1.04,6.9222,1.22,12.2741,7.54,15.6114a26.7222,26.7222,0,0,0,3.1366.9441c7.995,2.9952,16.6081,1.8015,24.723,3.6311,5.4463,1.2281,11.4051,1.341,15.9717,5.5249.9807.8986,2.9042.6892,4.2959,1.2378a45.9342,45.9342,0,0,1,4.3916,2.2543c-6.8141-1.95-13.5374-4.35-20.4631-5.7432-8.793-1.7685-17.7689-2.6081-26.6252-4.0922a27.218,27.218,0,0,1-7.4087-2.6218C545.6611,747.7684,543.6919,741.6017,546.9019,734.3949Z" transform="translate(-249.3457 -130.74)"/><path class="cls-6" d="M598.25,275.0081c-1.631.0249-3.6981-.5842-4.8166.1858-4.5375,3.1237-7.65,13.842-2.9724,20.3083.55.76.7055,2.601.1955,3.1456-.7411.7911-2.5337,1.4615-3.3639,1.0759-.9486-.44-2.0718-2.2829-1.8411-3.1912,1.2741-5.0164,1.0195-9.622-1.64-14.2311-.4837-.8384.9213-3.1174,1.9043-4.3812,2.1491-2.763,4.5614-5.3244,6.9206-7.9186.8628-.9487,1.7745-2.2356,2.86-2.4744.8314-.1828,2.2751.8144,2.9156,1.68,1.73,2.338,3.1765,4.8859,4.7355,7.35Z" transform="translate(-249.3457 -130.74)"/><path class="cls-17" d="M613.0742,293.6623l1.3216.4654.2364,1.9207.7359,4.1682q.0126,1.81.0253,3.6193l-5.7538-1.0646-2.7273.3437c-1.7506,2.4987-3.4759,5.0158-5.2633,7.4879-.8241,1.14-1.5918,2.7272-2.7205,3.1028-.8083.2689-3.1015-1.1426-3.0986-1.797.0062-1.3812.9982-2.8085,1.7705-4.1069.2522-.4241,1.3845-.3534,1.5931-.77,2.8549-5.7041,7.8522-7.3965,15.0019-6.8228-1.2351-2.1979-1.6458-4.07-2.5578-4.3593-4.6266-1.4662-9.3945-2.48-14.0859-3.7524a17.3844,17.3844,0,0,1-3.0271-1.4751q-.0205-1.63-.0415-3.2582c1.1779-.4417,2.674-1.5794,3.4814-1.21,4.6292,2.1174,9.0949,4.5925,13.6159,6.9458Q612.3271,293.3805,613.0742,293.6623Z" transform="translate(-249.3457 -130.74)"/><path class="cls-3" d="M607.3447,763.77c1.6141-.5562,3.8457-2.0845,4.7438-1.5135,6.7462,4.2888,10.94-.5122,14.6361-2.8162.314-4.6431.9132-8.1557.67-11.609a22.6435,22.6435,0,0,0-2.2635-8.0327,12.3975,12.3975,0,0,1,1.0436-13.4487c1.163-1.6589,2.611-3.1179,3.9292-4.6679-4.3543,7.2022-4.1628,14.7381-1.6718,22.4544a15.1582,15.1582,0,0,1,.46,2.2859c.9071,5.7212,2.3347,11.8463-2.922,16.0923C620.3161,767.0811,613.741,765.9955,607.3447,763.77Z" transform="translate(-249.3457 -130.74)"/><path class="cls-3" d="M522.6916,691.1291c-1.1274,3.4247-4.5612,4.6838-8.373,2.764-4.0948-2.0623-7.86-4.9187-12.1173-6.4734-3.1681-1.1569-7.4771-2.003-10.1721-.6994-1.961.9486-2.2517,5.5975-3.04,8.66a60.4577,60.4577,0,0,0-1.7963,9.3434c-.1531,1.63.7878,3.338.9766,5.0394.0559.5046-.7654,1.1068-1.1847,1.6642-2.99-5.7032-1.1977-21.1838,3.0552-25.616,2.7041-2.8181,6.1685-2.9768,9.4705-1.6481a105.4671,105.4671,0,0,1,11.18,5.5642C514.5451,691.84,518.448,692.7394,522.6916,691.1291Z" transform="translate(-249.3457 -130.74)"/><path class="cls-3" d="M493.3316,719.2047c4.6625.6233,9.3085,1.486,13.9917,1.8077a50.9777,50.9777,0,0,0,16.4547-1.7046c4.6452-1.2064,9.6787-1.0386,14.5468-1.1277.7022-.0128,1.44,1.9422,2.1619,2.9862-7.01-2.233-13.7835-.6247-20.5747,1.1812C510.6569,724.8086,501.57,725.51,493.3316,719.2047Z" transform="translate(-249.3457 -130.74)"/><path class="cls-10" d="M408.0917,646.6554c-3.0719-.0087-6.2974-3.2956-5.9684-6.4794.3587-3.4714,2.1987-5.7491,6.0535-5.6173,3.6964.1263,5.7291,2.08,5.8759,5.761A5.9518,5.9518,0,0,1,408.0917,646.6554Z" transform="translate(-249.3457 -130.74)"/><path class="cls-9" d="M615.3934,303.8359q-.0126-1.81-.0253-3.6193c4.0388,6.8578,1.6032,13.3123-1.4228,19.6212-.3652.7614-2.2256,1.3362-3.2,1.1212a3.6589,3.6589,0,0,1-2.2707-2.4249c-.1859-.9736.4855-2.9387,1.1476-3.1183C616.0158,313.6817,615.0662,308.47,615.3934,303.8359Z" transform="translate(-249.3457 -130.74)"/><path class="cls-3" d="M546.3027,686.9351c-1.3859-.7373-3.0978-1.1829-4.0795-2.2816-1.4-1.5666-2.02-3.8378-3.4393-5.3773-1.0206-1.1068-3.1526-2.41-4.1642-2.0165-1.5125.5879-2.5421,2.5393-3.6563,4.0029-1.4317,1.8806-2.7438,3.8524-4.1074,5.7849.82-2.3219,1.3058-4.8457,2.5535-6.9084,1.2379-2.0467,3.2034-5.0184,4.9213-5.0672,2.2053-.0627,4.8846,2.0064,6.6258,3.8507C543.1293,681.2242,544.5546,684.2321,546.3027,686.9351Z" transform="translate(-249.3457 -130.74)"/><path class="cls-17" d="M573.8269,330.2061l-2.3834.0073c-1.1808-3.9051-2.5077-7.7754-3.45-11.7374a5.1034,5.1034,0,0,1,1.0238-3.72,2.9327,2.9327,0,0,1,2.904-.3235,5.2063,5.2063,0,0,1,1.8437,3.3693,45.9583,45.9583,0,0,1-.6783,6.8466q.1047.9226.21,1.8452Q573.5616,328.35,573.8269,330.2061Z" transform="translate(-249.3457 -130.74)"/><path class="cls-3" d="M630.38,720.8817c.9664-2.8558,2.476-5.657,2.77-8.58.4246-4.2233-.0321-8.5353-.1128-12.8093,3.9477,3.0327,3.9748,7.371,2.7508,11.3346C634.686,714.3949,632.2357,717.5464,630.38,720.8817Z" transform="translate(-249.3457 -130.74)"/><path class="cls-15" d="M598.25,275.0081l4.8979,1.5495a26.4454,26.4454,0,0,1,5.0463,1.8615c1.0265.6214,2.2019,2.0341,2.1763,3.0648a4.1377,4.1377,0,0,1-2.3488,2.8777,3.6487,3.6487,0,0,1-3.14-1.0752C602.5288,280.6542,600.44,277.7864,598.25,275.0081Z" transform="translate(-249.3457 -130.74)"/><path class="cls-17" d="M582.6154,261.7756a6.8586,6.8586,0,0,1,2.2137.25c1.4842.7075,2.8714,1.6185,4.2979,2.4471-.913,1.2354-1.7559,2.533-2.77,3.6792a7.712,7.712,0,0,1-1.9517,1.192l-3.0793-.1569q.4334-2.34.8672-4.68Q582.4048,263.1406,582.6154,261.7756Z" transform="translate(-249.3457 -130.74)"/><path class="cls-17" d="M578.7942,272.4276q1.2748-1.6212,2.55-3.242.737,1.06,1.4725,2.1206c-.907,1.8379-1.8276,3.6693-2.7177,5.5154-1.2033,2.4957-2.7085,3.6819-5.1117,1.2575l.0572-4.1395-.03.03Z" transform="translate(-249.3457 -130.74)"/><path class="cls-15" d="M582.6154,261.7756q-.2107,1.3653-.4218,2.7308a27.9352,27.9352,0,0,0-4.0652-3.7884c-1.0676-.6741-2.6175-.5838-3.9519-.835l3.8865-3.0292Z" transform="translate(-249.3457 -130.74)"/><path class="cls-3" d="M541.4034,721.6853q6.6687,1.0993,5.5239,7.7641Q544.1652,725.568,541.4034,721.6853Z" transform="translate(-249.3457 -130.74)"/><path class="cls-9" d="M472.6439,519.44l1.876,8.1015-.9271.1913-1.3156-3.5964Q472.4605,521.7882,472.6439,519.44Z" transform="translate(-249.3457 -130.74)"/><path class="cls-9" d="M472.31,539.937q.6257-2.2925,1.2512-4.5848l1.023.2324q-1.02,4.06-2.04,8.1207Q472.4269,541.8212,472.31,539.937Z" transform="translate(-249.3457 -130.74)"/><path class="cls-4" d="M439.5688,317.5994l3.43.845-.1183.9374q-4.1718-.7953-8.3441-1.5907Q437.052,317.6949,439.5688,317.5994Z" transform="translate(-249.3457 -130.74)"/><path class="cls-15" d="M572.2813,308.84l3.6446-.4744Z" transform="translate(-249.3457 -130.74)"/><path class="cls-3" d="M526.3755,687.8291l-2.9012,2.8985Z" transform="translate(-249.3457 -130.74)"/><path class="cls-15" d="M575.045,273.94l-.0572,4.1395Z" transform="translate(-249.3457 -130.74)"/><path class="cls-3" d="M487.7333,713.2629l2.151,2.9012Z" transform="translate(-249.3457 -130.74)"/><path class="cls-3" d="M490.6822,717.0656q1.3354,1.0861,2.6694,2.1741Q492.0154,718.1545,490.6822,717.0656Z" transform="translate(-249.3457 -130.74)"/><path class="cls-9" d="M606.9123,303.115l2.7273-.3437Z" transform="translate(-249.3457 -130.74)"/><path class="cls-15" d="M569.55,300.2727q-.2994-1.7989-.5969-3.6Q569.2534,298.4711,569.55,300.2727Z" transform="translate(-249.3457 -130.74)"/><path class="cls-15" d="M566.6486,295.5576l.3528,2.7025Z" transform="translate(-249.3457 -130.74)"/><path class="cls-15" d="M614.6322,296.0484l-.2364-1.9207Z" transform="translate(-249.3457 -130.74)"/><path class="cls-15" d="M571.7067,306.6892q-.8275-1.2786-1.6551-2.5573Z" transform="translate(-249.3457 -130.74)"/><path class="cls-15" d="M567.6776,286.2248q-.3-1.7988-.597-3.6Q567.3812,284.4232,567.6776,286.2248Z" transform="translate(-249.3457 -130.74)"/><path class="cls-15" d="M564.7765,281.51q.1764,1.3512.3527,2.7025Q564.9528,282.861,564.7765,281.51Z" transform="translate(-249.3457 -130.74)"/><path class="cls-15" d="M566.683,278.7121q-.3009-1.7745-.6-3.5507Q566.3847,276.935,566.683,278.7121Z" transform="translate(-249.3457 -130.74)"/><path class="cls-4" d="M431.0834,317.7827l-2.6822,1.1782-.4044-1.4132Z" transform="translate(-249.3457 -130.74)"/><path class="cls-15" d="M578.7942,272.4276l-3.7791,1.542Q576.9047,273.1985,578.7942,272.4276Z" transform="translate(-249.3457 -130.74)"/><path class="cls-15" d="M565.8054,272.1767l-.3636-2.7225Z" transform="translate(-249.3457 -130.74)"/><path class="cls-15" d="M562.7,267.4562l.5574,2.708Z" transform="translate(-249.3457 -130.74)"/><path class="cls-15" d="M582.8172,271.3062q-.7359-1.06-1.4725-2.1206l-.018.0013,3.079.1568Z" transform="translate(-249.3457 -130.74)"/><path class="cls-15" d="M567.639,303.0683q.2253,1.3282.4484,2.6584Q567.8609,304.3992,567.639,303.0683Z" transform="translate(-249.3457 -130.74)"/><path class="cls-15" d="M578.77,292.0422l1.9371-1.1613Z" transform="translate(-249.3457 -130.74)"/><path class="cls-15" d="M565.7668,289.02q.2246,1.3282.447,2.6582Q565.9882,290.3513,565.7668,289.02Z" transform="translate(-249.3457 -130.74)"/><path class="cls-15" d="M594.4831,287.364q.0208,1.6289.0415,3.2582Q594.5036,288.9938,594.4831,287.364Z" transform="translate(-249.3457 -130.74)"/><path class="cls-15" d="M573.25,288.9576l-1.8262.2353Z" transform="translate(-249.3457 -130.74)"/><path class="cls-15" d="M563.8946,274.9726q.2255,1.3284.4485,2.6585Q564.1166,276.3036,563.8946,274.9726Z" transform="translate(-249.3457 -130.74)"/><path class="cls-15" d="M565.9369,266.1684l1.1161-2.4557Z" transform="translate(-249.3457 -130.74)"/><path class="cls-9" d="M573.2963,326.494l-.2095-1.8452Z" transform="translate(-249.3457 -130.74)"/><path class="cls-15" d="M613.0742,293.6623q-.747-.2815-1.4938-.5626Q612.3274,293.3814,613.0742,293.6623Z" transform="translate(-249.3457 -130.74)"/><path class="cls-4" d="M450.7518,318.7964l-1.9626.1542-.0591-.524,1.953-.2618Z" transform="translate(-249.3457 -130.74)"/><path class="cls-18" d="M487.2909,545.9537a43.4523,43.4523,0,0,1,.5461-29.5415c2.1006,3.1657,4.4339,6.2037,6.2479,9.5255,3.1666,5.7988,7.9263,8.9016,14.4257,8.4717a132.9578,132.9578,0,0,0,15.1229-2.3671c8.3767-1.5391,16.7163-3.2824,25.1-4.78,3.8186-.6821,7.7836-.6478,11.5447-1.5273,7.9332-1.855,10.3992-6.9433,6.13-13.81a103.6262,103.6262,0,0,0-11.916-14.8857,30.9543,30.9543,0,0,1-8.5847-20.182,54.2158,54.2158,0,0,0-1.3112-7.3188c5.3655.186,10.9012-.4185,16.067.6949,22.3388,4.815,37.6913,18.2375,46.4368,39.299,5.3432,12.8677,5.0049,26.4079,1.969,39.3383-1.8708,7.968-7.6953,15.0151-11.8371,22.4239-.2925.5233-1.3491.619-2.0529.913-5.7244-6.0846-7.9836-13.4786-8.7453-21.647A34.1093,34.1093,0,0,0,583.52,540.29c-3.4727-7.9287-10.7674-11.0195-18.8709-7.8232-4.001,1.5782-7.5585,4.2511-11.4074,6.254-4.53,2.3572-8.9795,5.8274-13.7829,6.4859a73.506,73.506,0,0,0-23.57,6.8721c-6.9571,3.4974-13.3377,2.2038-19.3858-3.0508C494.2458,547.0663,490.4081,546.925,487.2909,545.9537Z" transform="translate(-249.3457 -130.74)"/><path class="cls-8" d="M487.2909,545.9537c3.1172.9713,6.9549,1.1126,9.2126,3.0741,6.0481,5.2546,12.4287,6.5482,19.3858,3.0508a73.506,73.506,0,0,1,23.57-6.8721c4.8034-.6585,9.2532-4.1287,13.7829-6.4859,3.8489-2.0029,7.4064-4.6758,11.4074-6.254,8.1035-3.1963,15.3982-.1055,18.8709,7.8232a34.1093,34.1093,0,0,1,2.9136,10.2707c.7617,8.1684,3.0209,15.5624,8.7453,21.647-7.5057,10.7355-18.3753,16.7743-30.5138,20.0372C530.0147,601.5591,495.7874,580.842,487.2909,545.9537Z" transform="translate(-249.3457 -130.74)"/><path class="cls-19" d="M544.5964,469.5384a54.2158,54.2158,0,0,1,1.3112,7.3188,30.9543,30.9543,0,0,0,8.5847,20.182,103.6262,103.6262,0,0,1,11.916,14.8857c4.2691,6.8665,1.8031,11.9548-6.13,13.81-3.7611.88-7.7261.8452-11.5447,1.5273-8.3837,1.4979-16.7233,3.2412-25.1,4.78a132.9578,132.9578,0,0,1-15.1229,2.3671c-6.4994.43-11.2591-2.6729-14.4257-8.4717-1.814-3.3218-4.1473-6.36-6.2479-9.5255C493.4923,490.9328,517.5419,471.0722,544.5964,469.5384Z" transform="translate(-249.3457 -130.74)"/><path class="cls-20" d="M648.0768,815.5482c8.99.9789,17.0431,1.8139,25.0836,2.7534,2.8993.3387,6.3679,6.903,5.1449,9.6082-.8337,1.8442-1.8,3.6283-2.7075,5.4391-3.4042,6.7929-9.1881,7.6409-14.4537,2.05-4.7976-5.0943-9.5607-10.2233-14.2228-15.441a3.74,3.74,0,0,1-.8575-3.0895C646.3551,816.0766,647.8014,815.7106,648.0768,815.5482Z" transform="translate(-249.3457 -130.74)"/><path class="cls-20" d="M677.3289,911.5385c-8.9-.9718-16.7819-1.7994-24.6544-2.71-2.7857-.3222-6.5129-6.9512-5.3816-9.5117.8165-1.8479,1.7921-3.6257,2.6983-5.4339,3.4495-6.8829,9.366-7.8067,14.54-2.25,4.6532,4.9973,9.3311,9.9735,13.8743,15.0693.7967.8934,1.5694,2.5141,1.2746,3.4638C679.4207,911.0025,677.6523,911.37,677.3289,911.5385Z" transform="translate(-249.3457 -130.74)"/><path class="cls-21" d="M633.03,846.0971c9.0319,1.0364,17.222,1.93,25.3971,2.9444,2.2587.28,5.7677,6.9432,4.7992,9.0452-1.3659,2.9645-2.8433,5.8832-4.4009,8.752-1.4209,2.6172-8.6782,3.5555-10.7485,1.3715-5.4471-5.746-10.8676-11.5195-16.1714-17.3969a4.758,4.758,0,0,1-1.1007-3.5182C630.9144,846.6514,632.6464,846.285,633.03,846.0971Z" transform="translate(-249.3457 -130.74)"/><path class="cls-20" d="M708.033,850.4155c-8.8738-.972-16.9176-1.8048-24.947-2.7586-2.8254-.3356-6.37-7.01-5.1946-9.6209.83-1.8441,1.8014-3.6243,2.7084-5.4338,3.3265-6.6366,9.2213-7.6124,14.2375-2.3005,4.7994,5.0824,9.5872,10.1783,14.25,15.3847a4.8069,4.8069,0,0,1,1.143,3.4881C710.1291,849.8215,708.42,850.2163,708.033,850.4155Z" transform="translate(-249.3457 -130.74)"/><path class="cls-20" d="M665.4865,877.9553c-.3635-1.0159-.4367-2.0938-1.0109-2.683-3.7742-3.8727-1.0982-7.2442.11-11.2126,1.7148-5.6348,5.9827-5.8532,10.2578-6.5065.8839-.1352,2.1689.8088,2.9186,1.5914,5.3758,5.6123,10.7049,11.2716,15.928,17.0257.7872.8673.9462,2.3054,1.3957,3.4794-1.2039.386-2.4486,1.2-3.6054,1.09C682.8193,879.9155,674.1761,878.9091,665.4865,877.9553Z" transform="translate(-249.3457 -130.74)"/><path class="cls-20" d="M617.4779,876.6905c8.8639,1.0237,16.8877,1.8783,24.8889,2.9086,3.3945.4371,6.5984,6.7133,5.1648,9.7924-.7859,1.688-1.6387,3.345-2.4735,5.01-3.4165,6.8141-9.16,7.6457-14.4166,2.0747-4.7875-5.0741-9.6-10.1259-14.2885-15.29a3.9751,3.9751,0,0,1-1.0185-3.1486C615.5673,877.2752,617.0929,876.9088,617.4779,876.6905Z" transform="translate(-249.3457 -130.74)"/><path class="cls-22" d="M632.1565,840.872c6.4513-2.5365,12.888-5.1117,19.375-7.553a2.8678,2.8678,0,0,1,2.4865.4653,63.233,63.233,0,0,1,6.8944,7.5163c.4166.5633-1.0968,3.6387-1.5447,3.5984-9.0491-.8145-18.0724-1.9152-27.1009-2.9584Z" transform="translate(-249.3457 -130.74)"/><path class="cls-22" d="M693.2063,886.4148c-6.0547,2.3594-12.066,4.844-18.2019,6.9687a5.2722,5.2722,0,0,1-4.22-1.0362,48.4259,48.4259,0,0,1-5.831-5.9994c-1.8091-2.0735-1.4284-4.35,1.3912-4.1388,9.0561.6784,18.0694,1.93,27.0992,2.9606Z" transform="translate(-249.3457 -130.74)"/><path class="cls-22" d="M627.2972,851.9287c6.1069,6.5249,12.3117,12.9624,18.2623,19.627,1.8359,2.0563.9913,3.96-1.9333,3.87A80.3578,80.3578,0,0,1,633.92,874.35a2.7946,2.7946,0,0,1-1.9429-1.5008c-1.962-6.7776-3.7807-13.5968-5.6392-20.4044Z" transform="translate(-249.3457 -130.74)"/><path class="cls-22" d="M698.5993,874.4061q-7.4614-7.4634-14.917-14.9325a31.159,31.159,0,0,1-3.4345-3.7683c-.5272-.7426-.9664-2.1028-.6253-2.7558a3.2247,3.2247,0,0,1,2.5992-1.2159c3.2427.2,6.4817.5989,9.69,1.1215a2.8222,2.8222,0,0,1,1.924,1.6c1.7437,6.5546,3.3373,13.1491,4.9738,19.7323Z" transform="translate(-249.3457 -130.74)"/><path class="cls-22" d="M691.9328,818.0507c-.35,3.14-2.0741,5.4039-5.8092,5.6181a5.954,5.954,0,0,1-6.269-6.063c.1271-3.4668,2.16-5.4142,5.5222-5.799C688.6874,811.4279,691.7913,814.3018,691.9328,818.0507Z" transform="translate(-249.3457 -130.74)"/><path class="cls-22" d="M710.21,884.4687c-.5466,3.4272-2.2841,5.722-6.0545,5.7841a6.006,6.006,0,0,1-6.0184-6.35c.2734-3.7767,2.7333-5.6178,6.2266-5.5532C708.02,878.417,709.8277,880.8574,710.21,884.4687Z" transform="translate(-249.3457 -130.74)"/><path class="cls-22" d="M694.93,914.5813c-.3175,3.6571-2.1973,5.8956-5.7833,6.2813-3.2437.349-6.4163-2.7644-6.3347-6.1026.0924-3.7811,2.36-5.6893,5.9438-5.8144C692.5233,908.814,694.2869,911.1933,694.93,914.5813Z" transform="translate(-249.3457 -130.74)"/><path class="cls-22" d="M621.7368,836.831c3.6.3706,5.7432,2.4186,5.7837,6.0143.0414,3.673-2.2639,5.7064-5.8308,5.963a6.0571,6.0571,0,0,1-6.1529-6.2353C615.8642,838.9682,618.0548,837.07,621.7368,836.831Z" transform="translate(-249.3457 -130.74)"/><path class="cls-22" d="M654.882,872.8484a6.1105,6.1105,0,0,1,6.32,6.0767c-.1759,3.6379-2.1979,5.7446-5.93,5.7741-3.7594.03-5.6856-2.2-6.0565-5.7211A5.8,5.8,0,0,1,654.882,872.8484Z" transform="translate(-249.3457 -130.74)"/><path class="cls-22" d="M637.3176,818.1906c-3.6184.1068-6.6752-2.7451-6.4333-6.1221.2591-3.6171,2.4768-5.7562,6.0644-5.73a5.5476,5.5476,0,0,1,5.91,5.8621C642.9192,815.789,640.7515,817.8644,637.3176,818.1906Z" transform="translate(-249.3457 -130.74)"/><path class="cls-22" d="M639.8538,915.3933c-3.5358-.3723-5.6413-2.3013-5.9068-5.9283a5.668,5.668,0,0,1,5.6644-6.042c3.3679-.0714,6.5107,2.8215,6.3155,6.0967C645.709,913.1761,643.471,915.0152,639.8538,915.3933Z" transform="translate(-249.3457 -130.74)"/><path class="cls-22" d="M676.5409,848.7679c-.3685,3.3353-2.387,5.3321-6.023,5.416a6.0274,6.0274,0,0,1-6.0264-6.3039c.3527-3.31,2.327-5.3441,5.788-5.4842A6.1222,6.1222,0,0,1,676.5409,848.7679Z" transform="translate(-249.3457 -130.74)"/><path class="cls-22" d="M698.8092,874.1874a4.9778,4.9778,0,0,1,.4565.5193c.0157.0224-.1743.1881-.269.2874q-.1983-.2944-.397-.5884Z" transform="translate(-249.3457 -130.74)"/><path class="cls-23" d="M738.3805,551.895c-14.7287-.3094-28.0133-9.5112-32.9168-22.8-6.3958-17.3338,3.0677-34.4595,21.1266-38.2318,16.1737-3.3786,33.8043,6.2215,39.77,21.6553C774.0339,532.37,759.84,552.3458,738.3805,551.895Zm-2.865-12.729a18.1559,18.1559,0,0,0,.9469-36.2994c-9.7783-.3913-18.2671,7.7046-18.5648,17.7054A18.0416,18.0416,0,0,0,735.5155,539.166Z" transform="translate(-249.3457 -130.74)"/><path class="cls-21" d="M552.77,305.7043c-.7468-.6569-.8589-.8434-.9817-.8507-3.4231-.2041-7.9613.9268-10.0494-.8413A68.8935,68.8935,0,0,1,528.7829,288.92c-1.1937-1.8417-.0721-6.3342,1.537-8.4225.995-1.2914,4.9151-.4926,7.5009-.3185,1.2167.0819,2.3837.9026,3.5732,1.3885l.838-1.1049c-1.1363-1.2461-2.2542-2.51-3.4122-3.7352-4.9826-5.2735-3.8552-10.469,2.86-13.1277,6.7884-2.6877,13.3391,1.0216,14.36,8.2473.937,6.6355,1.7179,13.2931,2.537,19.9447.03.2435-.2644.5269-.216.4374l-11.4937-.9234q-.106,1.0294-.2119,2.0589c1.8442.24,3.6945.4409,5.5315.7275,5.4892.8563,7.2591,2.6949,7.9324,8.1084.6318,5.08,1.2879,10.1575,2.0128,15.8612h-9.9989q-.0849.824-.17,1.6479L562.57,321.5c.5574,4.3316,1.1639,9.0446,1.9588,15.2208-4.5245-.2982-8.8754.3276-12.4218-1.078-3.4737-1.3767-6.1282-4.8222-8.6433-6.94-1.144,6.6116,8.1,11.7078,21.5114,10.1717.5672,6.793,1.5631,13.587,1.4532,20.3631-.0356,2.1885-2.9766,4.33-5.1529,6.203-2.1625-6.1669-.3073-13.245-6.8592-17.0125a8.6726,8.6726,0,0,0-4.3591-1.2049c6.475,4.8531,8.4784,11.0131,6.8653,18.636-4.908.8494-7.6584-2.06-10.4283-5.4578a19.8005,19.8005,0,0,0-5.5957-4.1139c-1.5922-.9185-3.5349-1.2165-5.1641-2.086-3.4619-1.8478-4.5114-4.6422-2.5173-8.1912,1.7682-3.1471,3.677-6.2151,5.5237-9.3181l-1.3321-1.0263c-1.268,1.4314-2.5964,2.8143-3.7932,4.3031-4.2771,5.32-7.4377,4.885-10.0146-1.4226-2.7312-6.685-.0008-11.7534,6.8957-12.9032a7.043,7.043,0,0,0,3.5815-1.88c-5.447-1.2719-11.9415-.814-12.7757-8.2057-.2215-1.9625.3609-4.0159.6216-6.4749l7.8742,3.9693.8244-1.2524c-1.13-.9336-2.2224-1.9191-3.3983-2.7914-3.867-2.8689-5.0333-8.1084-2.38-11.4808,1.7965-2.2829,3.7525-3.1656,6.099-.3915,3.4074,4.0284,7,7.9,10.9767,12.3573l-1.7156,8.4016,1.5057.3688c.2846-.6677.5664-1.3365.8545-2.0027,1.5388-3.5588,1.4557-8.433,7.27-8.4676C550.7743,307.7881,551.7065,306.4968,552.77,305.7043Z" transform="translate(-249.3457 -130.74)"/><path class="cls-21" d="M365.8778,661.6667c1.1215,2.0472,2.41,3.334,2.2266,4.3554-.1953,1.085-1.7875,1.9182-2.77,2.8614-.8888-1.0765-2.4239-2.1228-2.4759-3.2383C362.8115,664.6284,364.3726,663.5366,365.8778,661.6667Z" transform="translate(-249.3457 -130.74)"/><path class="cls-23" d="M454.68,665.8253c-1.93,1.4342-3.2214,3.0617-4.0637,2.8552a4.509,4.509,0,0,1-2.61-3.1073c-.1339-.6957,1.6412-2.4649,2.5709-2.4753C451.6614,663.0857,452.7615,664.4649,454.68,665.8253Z" transform="translate(-249.3457 -130.74)"/><path class="cls-21" d="M408.464,586.7023c1.2011,1.829,2.6457,3.0737,2.4707,4.0176a3.8839,3.8839,0,0,1-2.8829,2.5191,3.8257,3.8257,0,0,1-2.709-2.7C405.3318,589.5043,406.9478,588.452,408.464,586.7023Z" transform="translate(-249.3457 -130.74)"/><path class="cls-24" d="M735.5155,539.166a18.0416,18.0416,0,0,1-17.6179-18.594c.2977-10.0008,8.7865-18.0967,18.5648-17.7054a18.1559,18.1559,0,0,1-.9469,36.2994Zm-3.608-30.696c-1.9326,2.147-2.2229,4.9812.6686,6.7131a6.726,6.726,0,0,0,6.0675-.2982,3.82,3.82,0,0,0,.5347-6.024Z" transform="translate(-249.3457 -130.74)"/><path class="cls-25" d="M731.9075,508.47l7.2708.3909a3.82,3.82,0,0,1-.5347,6.024,6.726,6.726,0,0,1-6.0675.2982C729.6846,513.4512,729.9749,510.617,731.9075,508.47Z" transform="translate(-249.3457 -130.74)"/></svg>